<svg width="316" height="147" viewBox="0 0 316 147" fill="none" xmlns="http://www.w3.org/2000/svg">
<g clip-path="url(#clip0_43_613)">
<path d="M194.692 7.30809C177.192 1.15262 152.38 12.7222 152.38 12.7222L149.566 15.5361L164.33 37.67L186.464 52.434L189.278 49.6202C189.278 49.6202 200.848 24.8087 194.692 7.30809Z" fill="#F6CCAF"/>
<path d="M179.109 43.2908L180.528 38.8338C182.623 32.2522 189.657 28.6153 196.239 30.7105L200.696 32.1293L199.277 36.5863C197.182 43.1679 190.148 46.8048 183.566 44.7096L179.109 43.2908Z" fill="#BEE49D"/>
<path d="M196.239 30.7107C191.406 29.1724 186.333 30.7268 183.146 34.2653C185.621 33.3944 188.389 33.2909 191.082 34.1482L195.539 35.5671L194.12 40.024C193.564 41.7732 192.655 43.3117 191.502 44.5926C195.076 43.3348 198.039 40.4752 199.277 36.5865L200.696 32.1295L196.239 30.7107Z" fill="#AAE077"/>
<path d="M177.611 47.0346C180.118 51.8833 187.102 54.1065 192.781 51.1704L197.763 48.5946C193.583 40.5115 183.88 37.1446 175.657 40.7234C175.077 40.9761 174.841 41.6767 175.132 42.2391L177.611 47.0346Z" fill="#BEE49D"/>
<path d="M180.008 39.48C184.44 40.7198 188.366 43.7261 190.647 48.1372L185.665 50.713C184.811 51.1549 183.926 51.4778 183.032 51.6946C186.015 52.84 189.602 52.8138 192.781 51.1703L197.763 48.5946C194.304 41.9056 187.063 38.4464 180.008 39.48Z" fill="#AAE077"/>
<path d="M158.694 22.8758L163.151 21.4569C169.733 19.3617 173.37 12.3278 171.274 5.74624L169.856 1.28928L165.399 2.70813C158.817 4.80332 155.18 11.8373 157.275 18.4188L158.694 22.8758Z" fill="#BEE49D"/>
<path d="M163.68 7.86447L168.137 6.44562L169.556 10.9026C170.094 12.5927 170.251 14.312 170.081 15.9702C171.861 12.9985 172.408 9.30687 171.274 5.74624L169.856 1.28928L165.399 2.70813C160.507 4.26534 157.245 8.55112 156.75 13.3512C158.261 10.8299 160.659 8.82613 163.68 7.86447Z" fill="#AAE077"/>
<path d="M154.95 24.3735C150.102 21.8665 147.878 14.8828 150.815 9.20409L153.39 4.22238C161.473 8.40177 164.84 18.1051 161.261 26.3281C161.009 26.9086 160.308 27.1439 159.746 26.853L154.95 24.3735Z" fill="#BEE49D"/>
<path d="M150.815 16.079L153.39 11.0973C158.194 13.581 161.332 18.0154 162.336 22.9308C163.843 15.5833 160.381 7.83679 153.39 4.2222L150.815 9.20391C149.325 12.0846 149.166 15.3003 150.001 18.0979C150.206 17.4137 150.474 16.7373 150.815 16.079Z" fill="#AAE077"/>
<path d="M144.295 73.5186L128.482 57.7051C127.026 56.2495 127.026 53.8896 128.482 52.434C129.938 50.9783 132.297 50.9783 133.753 52.434L149.567 68.2474C151.022 69.7031 151.022 72.063 149.567 73.5186C148.111 74.9742 145.751 74.9742 144.295 73.5186Z" fill="#FEC165"/>
<path d="M133.825 57.8114C135.281 56.3557 137.657 56.3385 139.113 57.794L133.753 52.434C132.297 50.9783 129.937 50.9783 128.482 52.434C127.026 53.8896 127.026 56.2495 128.482 57.7051L133.551 62.7749C132.378 61.3113 132.468 59.1685 133.825 57.8114Z" fill="#FDB441"/>
<path d="M136.389 86.6963C136.389 86.6963 130.421 87.3924 122.515 79.4857C115.462 72.433 115.304 65.6119 115.304 65.6119L128.482 57.7051L144.295 73.5186L136.389 86.6963Z" fill="#FFDEC7"/>
<path d="M120.711 71.152L133.865 63.0882L128.482 57.7051L115.304 65.6119C115.304 65.6119 115.462 72.433 122.515 79.4857C123.562 80.5328 124.574 81.4276 125.544 82.1945C120.823 76.1827 120.711 71.152 120.711 71.152Z" fill="#F6CCAF"/>
<path d="M167.971 34.03V28.6287C167.971 20.6527 174.436 14.1868 182.412 14.1868H187.814V19.5881C187.814 27.5641 181.348 34.03 173.372 34.03H167.971Z" fill="#F47C7C"/>
<path d="M182.412 14.1868C177.101 14.1868 172.463 17.0558 169.954 21.3266C172.097 20.068 174.591 19.3432 177.256 19.3432H182.657V24.7444C182.657 27.4092 181.933 29.9035 180.674 32.0465C184.945 29.5378 187.814 24.8993 187.814 19.5881V14.1868H182.412Z" fill="#EE6161"/>
<path d="M167.634 38.6739C172.091 43.1309 180.554 43.1309 185.775 37.9108L190.354 33.3315C182.924 25.9014 171.067 25.5954 163.272 32.4138C162.722 32.8951 162.709 33.7486 163.226 34.2654L167.634 38.6739Z" fill="#F47C7C"/>
<path d="M190.354 33.3316C184.346 27.3236 175.444 25.9747 168.136 29.2827C173.642 28.92 179.27 30.842 183.479 35.0504L178.899 39.6297C177.969 40.5603 176.934 41.3219 175.839 41.9248C179.343 41.9726 183.013 40.6729 185.775 37.911L190.354 33.3316Z" fill="#EE6161"/>
<path d="M163.326 34.3665C158.869 29.9095 158.869 21.4461 164.09 16.226L168.669 11.6466C176.099 19.0768 176.405 30.9336 169.587 38.7281C169.105 39.2783 168.252 39.2917 167.735 38.7748L163.326 34.3665Z" fill="#F47C7C"/>
<path d="M162.371 23.1011L166.95 18.5218C171.159 22.7302 173.08 28.3587 172.718 33.8648C176.026 26.5562 174.677 17.6546 168.669 11.6466L164.09 16.226C161.327 18.9879 160.028 22.6578 160.076 26.1619C160.679 25.0664 161.44 24.0317 162.371 23.1011Z" fill="#EE6161"/>
<path d="M162.72 54.3396C162.784 54.3719 167.595 64.4239 174.138 60.8527C181.687 56.7328 186.464 52.434 186.464 52.434C186.464 52.434 180.633 43.5085 170.472 39.666C167.461 38.5273 165.058 39.985 163.189 42.447C159.406 47.4318 162.72 54.3396 162.72 54.3396Z" fill="#FFDEC7"/>
<path d="M149.566 15.5361C149.566 15.5361 134.586 32.1826 133.753 52.434L149.566 68.2475C161.322 68.0598 174.227 60.8036 174.227 60.8036C176.752 53.3008 170.953 36.9232 164.493 30.4633L149.566 15.5361Z" fill="#FFDEC7"/>
<path d="M149.566 15.5361C149.566 15.5361 134.586 32.1828 133.753 52.434L140.628 59.3091C141.461 39.0579 156.441 22.4112 156.441 22.4112L149.566 15.5361Z" fill="#F6CCAF"/>
<path d="M174.223 60.806C176.383 59.6233 178.314 58.428 179.969 57.3244C180.145 53.2818 179.018 48.1068 177.166 43.2187C175.224 41.8743 173.001 40.6278 170.519 39.6842C173.921 46.9784 175.899 55.836 174.227 60.8036C174.227 60.8036 174.225 60.8049 174.223 60.806Z" fill="#F6CCAF"/>
<path d="M201.087 30.9011L196.796 29.5352C197.243 27.0036 197.542 24.5464 197.685 22.2161C197.729 21.5056 197.188 20.8942 196.477 20.8505C195.768 20.8069 195.155 21.3478 195.112 22.0583C194.977 24.2513 194.697 26.5667 194.279 28.9556C192.113 28.666 189.897 28.8956 187.824 29.633C187.297 29.2901 186.756 28.9714 186.203 28.6784C188.08 26.0309 189.103 22.8612 189.103 19.5877V14.1868C189.103 13.4749 188.526 12.8977 187.814 12.8977H182.412C179.139 12.8977 175.969 13.9199 173.322 15.7978C173.024 15.2365 172.702 14.6878 172.354 14.1538C173.088 12.0889 173.317 9.88162 173.032 7.72266C181.138 6.30106 188.075 6.50267 193.675 8.32475C194.481 10.8063 194.974 13.5847 195.142 16.5941C195.181 17.3035 195.788 17.849 196.5 17.8097C197.211 17.7701 197.755 17.1619 197.716 16.451C197.522 12.9581 196.913 9.73793 195.908 6.88029C195.778 6.51161 195.489 6.22165 195.12 6.09206C188.968 3.92828 181.346 3.63059 172.455 5.20585L171.084 0.898247C170.868 0.219844 170.143 -0.154678 169.464 0.0608574C166.666 1.21725 161.964 1.44671 158.304 6.1627C157.038 4.95079 155.589 3.908 153.982 3.07714C153.35 2.7504 152.572 2.99791 152.245 3.63025C150.569 7.39524 148.04 10.0507 148.219 15.1206C146.803 16.7808 141.848 22.8938 137.83 31.5816C137.532 32.2278 137.813 32.9939 138.459 33.2928C139.106 33.5918 139.872 33.3101 140.17 32.6639C143.604 25.2384 147.844 19.6544 149.647 17.4403L163.582 31.375C169.21 37.0026 175.187 52.3272 173.146 59.923C170.835 61.1489 160.035 66.5981 150.087 66.9448L135.068 51.9259C135.312 47.467 136.278 42.8238 137.944 38.1152C138.182 37.444 137.83 36.7075 137.159 36.4699C136.488 36.2321 135.751 36.5841 135.514 37.2553C133.951 41.671 132.977 46.042 132.603 50.28C130.882 49.7494 128.93 50.1628 127.57 51.5223C126.007 53.0862 125.695 55.4338 126.631 57.3119L114.641 64.5065C114.244 64.7449 114.005 65.1784 114.015 65.6416C114.022 65.9412 114.27 73.0635 121.603 80.3973C125.286 84.08 130.812 88 136.014 88C136.616 88 137.139 87.9507 137.494 87.3596L144.688 75.369C146.591 76.3181 148.93 75.9775 150.478 74.4301C151.829 73.0793 152.246 71.1434 151.731 69.4305C163.014 68.5202 174.353 62.2119 174.859 61.9271C174.859 61.927 174.86 61.9268 174.86 61.9268C181.199 58.4542 185.555 54.9102 186.896 53.7671C191.917 53.9321 194.508 51.4666 198.355 49.7396C198.987 49.4127 199.235 48.635 198.908 48.0024C198.077 46.3959 197.034 44.9468 195.822 43.6816C198.016 41.9788 199.655 39.6492 200.505 36.9775L201.924 32.5205C202.14 31.8421 201.765 31.1171 201.087 30.9011ZM161.374 25.5208C161.376 25.4857 161.378 25.4508 161.38 25.4158C161.656 19.2701 165.326 17.0225 168.637 13.5012C174.046 19.688 174.772 28.9518 170.072 35.9787C166.699 29.965 164.176 28.6168 161.374 25.5208ZM184.863 36.9993C182.505 39.3572 179.098 40.7839 175.476 40.6205C174.226 39.9018 172.886 39.2387 171.458 38.6676C171.439 38.6277 171.42 38.5883 171.401 38.5485C173.525 35.7896 174.99 32.4581 175.534 28.8312C180.167 28.6363 184.816 30.1577 188.499 33.3631L184.863 36.9993ZM174.406 18.1969C176.697 16.4364 179.507 15.4759 182.412 15.4759H186.525V19.5881C186.525 22.4939 185.564 25.3042 183.803 27.5954C181.279 26.6411 178.569 26.1705 175.762 26.2427C175.835 23.4837 175.37 20.7529 174.406 18.1969ZM169.018 2.9087C169.566 5.12215 171.109 7.68347 170.385 11.5851C169.764 10.8924 169.495 10.6265 169.276 10.5095C168.778 10.2434 168.16 10.3321 167.757 10.7352L163.434 15.0581C162.808 12.5043 161.654 10.1439 160.064 8.11042C163.029 3.95046 167.148 3.70948 169.018 2.9087ZM153.92 6.00509C158.126 8.62519 160.729 12.9649 161.283 17.6421C160.229 19.2421 159.429 21.1675 159.048 23.1943L150.792 14.9384C150.684 10.9481 152.644 8.8715 153.92 6.00509ZM148.655 72.6071C147.702 73.56 146.16 73.56 145.207 72.6071L139.627 67.0275C139.124 66.524 138.308 66.524 137.804 67.0275C137.301 67.5309 137.301 68.3471 137.804 68.8504L142.672 73.7185L135.652 85.4186C134.8 85.3752 133.061 85.1265 130.709 83.983L133.942 78.7078C134.314 78.1009 134.124 77.3071 133.517 76.9352C132.91 76.5632 132.116 76.7535 131.744 77.3607L128.465 82.7118C125.237 80.63 121.665 77.2312 119.399 73.4686L124.64 70.2565C125.247 69.8844 125.438 69.0908 125.066 68.4839C124.694 67.877 123.9 67.6864 123.293 68.0584L118.19 71.1862C117.181 68.9898 116.807 67.2242 116.67 66.2959L128.282 59.3287L133.884 64.9307C134.388 65.4341 135.204 65.4341 135.707 64.9307C136.211 64.4273 136.211 63.611 135.707 63.1078L129.393 56.7937C128.443 55.843 128.443 54.2961 129.394 53.3454C130.346 52.3931 131.888 52.3924 132.841 53.3451C132.841 53.3453 132.841 53.3454 132.841 53.3456L148.655 69.1589C149.608 70.1116 149.608 71.6542 148.655 72.6071ZM176.039 58.2813C176.466 53.7219 175.171 47.7364 172.999 42.2091C173.001 42.21 173.003 42.211 173.005 42.2119C179.099 45.3773 183.196 50.2178 184.721 52.2219C183.3 53.3896 180.232 55.7749 176.039 58.2813ZM187.175 51.1958C186.209 49.8472 183.401 46.2247 178.981 42.9279C180.909 42.5472 182.745 41.7934 184.383 40.706C189.037 41.2702 193.365 43.8686 195.98 48.065C193.095 49.3565 191.089 51.2501 187.175 51.1958ZM198.049 36.1955C197.31 38.5143 195.843 40.5185 193.874 41.9216C191.847 40.337 189.495 39.1854 186.952 38.5574C191.518 33.9877 191.275 34.2421 191.354 34.1455C191.768 33.6379 191.736 32.8911 191.266 32.4203C190.983 32.1381 190.694 31.8648 190.399 31.6006C192.204 31.2655 194.079 31.376 195.848 31.9391L199.077 32.9669L198.049 36.1955Z" fill="black"/>
</g>
<path d="M5.12591 123.988V129.52H11.8819V131.788H5.12591V139H2.30591V121.72H13.0819V123.988H5.12591ZM16.8478 129.028C17.2318 128.252 17.6958 127.644 18.2398 127.204C18.7838 126.756 19.4358 126.532 20.1958 126.532C20.4598 126.532 20.7078 126.564 20.9398 126.628C21.1718 126.684 21.3798 126.772 21.5638 126.892L21.3838 128.836C21.3518 128.972 21.2998 129.068 21.2278 129.124C21.1638 129.172 21.0758 129.196 20.9638 129.196C20.8438 129.196 20.6718 129.176 20.4478 129.136C20.2238 129.088 19.9878 129.064 19.7398 129.064C19.3798 129.064 19.0598 129.116 18.7798 129.22C18.5078 129.324 18.2598 129.476 18.0358 129.676C17.8198 129.876 17.6278 130.12 17.4598 130.408C17.2918 130.696 17.1358 131.024 16.9918 131.392V139H14.4118V126.76H15.9118C16.1838 126.76 16.3718 126.812 16.4758 126.916C16.5798 127.012 16.6518 127.184 16.6918 127.432L16.8478 129.028ZM30.8773 131.5C30.8773 131.068 30.8133 130.668 30.6853 130.3C30.5653 129.924 30.3853 129.6 30.1453 129.328C29.9053 129.048 29.6053 128.832 29.2453 128.68C28.8933 128.52 28.4853 128.44 28.0213 128.44C27.0853 128.44 26.3493 128.708 25.8133 129.244C25.2773 129.78 24.9373 130.532 24.7933 131.5H30.8773ZM24.7213 133.084C24.7533 133.78 24.8613 134.384 25.0453 134.896C25.2293 135.4 25.4733 135.82 25.7773 136.156C26.0893 136.492 26.4573 136.744 26.8813 136.912C27.3133 137.072 27.7933 137.152 28.3213 137.152C28.8253 137.152 29.2613 137.096 29.6293 136.984C29.9973 136.864 30.3173 136.736 30.5893 136.6C30.8613 136.456 31.0933 136.328 31.2853 136.216C31.4773 136.096 31.6533 136.036 31.8133 136.036C32.0213 136.036 32.1813 136.116 32.2933 136.276L33.0253 137.224C32.7213 137.584 32.3773 137.888 31.9933 138.136C31.6093 138.384 31.2013 138.588 30.7693 138.748C30.3373 138.9 29.8933 139.008 29.4373 139.072C28.9813 139.144 28.5373 139.18 28.1053 139.18C27.2573 139.18 26.4693 139.04 25.7413 138.76C25.0213 138.472 24.3933 138.052 23.8573 137.5C23.3293 136.948 22.9133 136.264 22.6093 135.448C22.3133 134.632 22.1653 133.692 22.1653 132.628C22.1653 131.78 22.2973 130.988 22.5613 130.252C22.8333 129.516 23.2173 128.876 23.7133 128.332C24.2173 127.788 24.8253 127.36 25.5373 127.048C26.2573 126.728 27.0693 126.568 27.9733 126.568C28.7253 126.568 29.4213 126.692 30.0613 126.94C30.7013 127.18 31.2533 127.536 31.7173 128.008C32.1813 128.48 32.5413 129.06 32.7973 129.748C33.0613 130.428 33.1933 131.204 33.1933 132.076C33.1933 132.476 33.1493 132.744 33.0613 132.88C32.9733 133.016 32.8133 133.084 32.5813 133.084H24.7213ZM42.9073 128.98C42.8433 129.092 42.7713 129.172 42.6913 129.22C42.6113 129.268 42.5113 129.292 42.3913 129.292C42.2553 129.292 42.1073 129.252 41.9473 129.172C41.7873 129.084 41.5993 128.988 41.3833 128.884C41.1673 128.78 40.9113 128.688 40.6153 128.608C40.3273 128.52 39.9873 128.476 39.5953 128.476C39.2753 128.476 38.9833 128.516 38.7193 128.596C38.4633 128.668 38.2433 128.776 38.0593 128.92C37.8833 129.056 37.7473 129.22 37.6513 129.412C37.5553 129.596 37.5073 129.796 37.5073 130.012C37.5073 130.3 37.5953 130.54 37.7713 130.732C37.9473 130.924 38.1793 131.092 38.4673 131.236C38.7553 131.372 39.0833 131.496 39.4513 131.608C39.8193 131.72 40.1953 131.84 40.5793 131.968C40.9633 132.096 41.3393 132.244 41.7073 132.412C42.0753 132.58 42.4033 132.788 42.6913 133.036C42.9793 133.276 43.2113 133.572 43.3873 133.924C43.5633 134.268 43.6513 134.688 43.6513 135.184C43.6513 135.76 43.5473 136.292 43.3393 136.78C43.1313 137.268 42.8273 137.692 42.4273 138.052C42.0273 138.412 41.5273 138.692 40.9273 138.892C40.3353 139.092 39.6553 139.192 38.8873 139.192C38.4633 139.192 38.0513 139.152 37.6513 139.072C37.2593 139 36.8833 138.9 36.5233 138.772C36.1713 138.636 35.8393 138.476 35.5273 138.292C35.2233 138.108 34.9513 137.908 34.7113 137.692L35.3113 136.708C35.3833 136.588 35.4713 136.496 35.5753 136.432C35.6873 136.36 35.8233 136.324 35.9833 136.324C36.1513 136.324 36.3153 136.38 36.4753 136.492C36.6433 136.596 36.8353 136.712 37.0513 136.84C37.2753 136.968 37.5433 137.088 37.8553 137.2C38.1673 137.304 38.5553 137.356 39.0193 137.356C39.4033 137.356 39.7353 137.312 40.0153 137.224C40.2953 137.128 40.5273 137 40.7113 136.84C40.8953 136.68 41.0313 136.5 41.1193 136.3C41.2073 136.092 41.2513 135.872 41.2513 135.64C41.2513 135.328 41.1633 135.072 40.9873 134.872C40.8113 134.672 40.5753 134.5 40.2793 134.356C39.9913 134.212 39.6593 134.084 39.2833 133.972C38.9153 133.86 38.5393 133.74 38.1553 133.612C37.7713 133.484 37.3913 133.336 37.0153 133.168C36.6473 133 36.3153 132.788 36.0193 132.532C35.7313 132.268 35.4993 131.952 35.3233 131.584C35.1473 131.208 35.0593 130.752 35.0593 130.216C35.0593 129.728 35.1553 129.264 35.3473 128.824C35.5473 128.384 35.8353 127.996 36.2113 127.66C36.5953 127.324 37.0633 127.06 37.6153 126.868C38.1753 126.668 38.8193 126.568 39.5473 126.568C40.3713 126.568 41.1193 126.7 41.7913 126.964C42.4633 127.228 43.0273 127.588 43.4833 128.044L42.9073 128.98ZM48.6559 128.212C49.1599 127.716 49.7119 127.32 50.3119 127.024C50.9119 126.72 51.6119 126.568 52.4119 126.568C53.0839 126.568 53.6719 126.68 54.1759 126.904C54.6879 127.128 55.1159 127.444 55.4599 127.852C55.8119 128.26 56.0759 128.752 56.2519 129.328C56.4279 129.896 56.5159 130.524 56.5159 131.212V139H53.9479V131.212C53.9479 130.388 53.7559 129.748 53.3719 129.292C52.9959 128.836 52.4199 128.608 51.6439 128.608C51.0679 128.608 50.5319 128.74 50.0359 129.004C49.5479 129.268 49.0879 129.628 48.6559 130.084V139H46.0759V121.24H48.6559V128.212ZM68.8056 123.988V129.52H75.5616V131.788H68.8056V139H65.9856V121.72H76.7616V123.988H68.8056ZM81.493 121.24V139H78.913V121.24H81.493ZM89.9695 126.568C90.8735 126.568 91.6895 126.716 92.4175 127.012C93.1535 127.308 93.7775 127.728 94.2895 128.272C94.8095 128.816 95.2095 129.476 95.4895 130.252C95.7695 131.028 95.9095 131.9 95.9095 132.868C95.9095 133.836 95.7695 134.708 95.4895 135.484C95.2095 136.26 94.8095 136.924 94.2895 137.476C93.7775 138.02 93.1535 138.44 92.4175 138.736C91.6895 139.032 90.8735 139.18 89.9695 139.18C89.0575 139.18 88.2335 139.032 87.4975 138.736C86.7695 138.44 86.1455 138.02 85.6255 137.476C85.1055 136.924 84.7055 136.26 84.4255 135.484C84.1455 134.708 84.0055 133.836 84.0055 132.868C84.0055 131.9 84.1455 131.028 84.4255 130.252C84.7055 129.476 85.1055 128.816 85.6255 128.272C86.1455 127.728 86.7695 127.308 87.4975 127.012C88.2335 126.716 89.0575 126.568 89.9695 126.568ZM89.9695 137.164C91.0735 137.164 91.8935 136.796 92.4295 136.06C92.9735 135.316 93.2455 134.256 93.2455 132.88C93.2455 131.504 92.9735 130.444 92.4295 129.7C91.8935 128.948 91.0735 128.572 89.9695 128.572C88.8495 128.572 88.0175 128.948 87.4735 129.7C86.9295 130.444 86.6575 131.504 86.6575 132.88C86.6575 134.256 86.9295 135.316 87.4735 136.06C88.0175 136.796 88.8495 137.164 89.9695 137.164ZM115.397 126.76L111.473 139H109.421C109.181 139 109.013 138.844 108.917 138.532L106.481 130.912C106.417 130.696 106.357 130.48 106.301 130.264C106.253 130.048 106.209 129.836 106.169 129.628C106.081 130.06 105.973 130.492 105.845 130.924L103.373 138.532C103.285 138.844 103.097 139 102.809 139H100.853L96.9289 126.76H98.9689C99.1689 126.76 99.3329 126.812 99.4609 126.916C99.5969 127.012 99.6849 127.128 99.7249 127.264L101.765 134.392C101.845 134.72 101.913 135.04 101.969 135.352C102.033 135.656 102.089 135.96 102.137 136.264C102.217 135.96 102.301 135.656 102.389 135.352C102.477 135.04 102.569 134.72 102.665 134.392L104.957 127.228C104.997 127.084 105.077 126.968 105.197 126.88C105.325 126.784 105.477 126.736 105.653 126.736H106.781C106.965 126.736 107.121 126.784 107.249 126.88C107.377 126.968 107.461 127.084 107.501 127.228L109.733 134.392C109.829 134.72 109.917 135.04 109.997 135.352C110.085 135.664 110.165 135.976 110.237 136.288C110.293 135.984 110.353 135.676 110.417 135.364C110.481 135.052 110.557 134.728 110.645 134.392L112.721 127.264C112.769 127.12 112.857 127 112.985 126.904C113.113 126.808 113.269 126.76 113.453 126.76H115.397ZM125.12 131.5C125.12 131.068 125.056 130.668 124.928 130.3C124.808 129.924 124.628 129.6 124.388 129.328C124.148 129.048 123.848 128.832 123.488 128.68C123.136 128.52 122.728 128.44 122.264 128.44C121.328 128.44 120.592 128.708 120.056 129.244C119.52 129.78 119.18 130.532 119.036 131.5H125.12ZM118.964 133.084C118.996 133.78 119.104 134.384 119.288 134.896C119.472 135.4 119.716 135.82 120.02 136.156C120.332 136.492 120.7 136.744 121.124 136.912C121.556 137.072 122.036 137.152 122.564 137.152C123.068 137.152 123.504 137.096 123.872 136.984C124.24 136.864 124.56 136.736 124.832 136.6C125.104 136.456 125.336 136.328 125.528 136.216C125.72 136.096 125.896 136.036 126.056 136.036C126.264 136.036 126.424 136.116 126.536 136.276L127.268 137.224C126.964 137.584 126.62 137.888 126.236 138.136C125.852 138.384 125.444 138.588 125.012 138.748C124.58 138.9 124.136 139.008 123.68 139.072C123.224 139.144 122.78 139.18 122.348 139.18C121.5 139.18 120.712 139.04 119.984 138.76C119.264 138.472 118.636 138.052 118.1 137.5C117.572 136.948 117.156 136.264 116.852 135.448C116.556 134.632 116.408 133.692 116.408 132.628C116.408 131.78 116.54 130.988 116.804 130.252C117.076 129.516 117.46 128.876 117.956 128.332C118.46 127.788 119.068 127.36 119.78 127.048C120.5 126.728 121.312 126.568 122.216 126.568C122.968 126.568 123.664 126.692 124.304 126.94C124.944 127.18 125.496 127.536 125.96 128.008C126.424 128.48 126.784 129.06 127.04 129.748C127.304 130.428 127.436 131.204 127.436 132.076C127.436 132.476 127.392 132.744 127.304 132.88C127.216 133.016 127.056 133.084 126.824 133.084H118.964ZM132.278 129.028C132.662 128.252 133.126 127.644 133.67 127.204C134.214 126.756 134.866 126.532 135.626 126.532C135.89 126.532 136.138 126.564 136.37 126.628C136.602 126.684 136.81 126.772 136.994 126.892L136.814 128.836C136.782 128.972 136.73 129.068 136.658 129.124C136.594 129.172 136.506 129.196 136.394 129.196C136.274 129.196 136.102 129.176 135.878 129.136C135.654 129.088 135.418 129.064 135.17 129.064C134.81 129.064 134.49 129.116 134.21 129.22C133.938 129.324 133.69 129.476 133.466 129.676C133.25 129.876 133.058 130.12 132.89 130.408C132.722 130.696 132.566 131.024 132.422 131.392V139H129.842V126.76H131.342C131.614 126.76 131.802 126.812 131.906 126.916C132.01 127.012 132.082 127.184 132.122 127.432L132.278 129.028ZM145.939 128.98C145.875 129.092 145.803 129.172 145.723 129.22C145.643 129.268 145.543 129.292 145.423 129.292C145.287 129.292 145.139 129.252 144.979 129.172C144.819 129.084 144.631 128.988 144.415 128.884C144.199 128.78 143.943 128.688 143.647 128.608C143.359 128.52 143.019 128.476 142.627 128.476C142.307 128.476 142.015 128.516 141.751 128.596C141.495 128.668 141.275 128.776 141.091 128.92C140.915 129.056 140.779 129.22 140.683 129.412C140.587 129.596 140.539 129.796 140.539 130.012C140.539 130.3 140.627 130.54 140.803 130.732C140.979 130.924 141.211 131.092 141.499 131.236C141.787 131.372 142.115 131.496 142.483 131.608C142.851 131.72 143.227 131.84 143.611 131.968C143.995 132.096 144.371 132.244 144.739 132.412C145.107 132.58 145.435 132.788 145.723 133.036C146.011 133.276 146.243 133.572 146.419 133.924C146.595 134.268 146.683 134.688 146.683 135.184C146.683 135.76 146.579 136.292 146.371 136.78C146.163 137.268 145.859 137.692 145.459 138.052C145.059 138.412 144.559 138.692 143.959 138.892C143.367 139.092 142.687 139.192 141.919 139.192C141.495 139.192 141.083 139.152 140.683 139.072C140.291 139 139.915 138.9 139.555 138.772C139.203 138.636 138.871 138.476 138.559 138.292C138.255 138.108 137.983 137.908 137.743 137.692L138.343 136.708C138.415 136.588 138.503 136.496 138.607 136.432C138.719 136.36 138.855 136.324 139.015 136.324C139.183 136.324 139.347 136.38 139.507 136.492C139.675 136.596 139.867 136.712 140.083 136.84C140.307 136.968 140.575 137.088 140.887 137.2C141.199 137.304 141.587 137.356 142.051 137.356C142.435 137.356 142.767 137.312 143.047 137.224C143.327 137.128 143.559 137 143.743 136.84C143.927 136.68 144.063 136.5 144.151 136.3C144.239 136.092 144.283 135.872 144.283 135.64C144.283 135.328 144.195 135.072 144.019 134.872C143.843 134.672 143.607 134.5 143.311 134.356C143.023 134.212 142.691 134.084 142.315 133.972C141.947 133.86 141.571 133.74 141.187 133.612C140.803 133.484 140.423 133.336 140.047 133.168C139.679 133 139.347 132.788 139.051 132.532C138.763 132.268 138.531 131.952 138.355 131.584C138.179 131.208 138.091 130.752 138.091 130.216C138.091 129.728 138.187 129.264 138.379 128.824C138.579 128.384 138.867 127.996 139.243 127.66C139.627 127.324 140.095 127.06 140.647 126.868C141.207 126.668 141.851 126.568 142.579 126.568C143.403 126.568 144.151 126.7 144.823 126.964C145.495 127.228 146.059 127.588 146.515 128.044L145.939 128.98ZM148.711 137.512C148.711 137.28 148.751 137.064 148.831 136.864C148.919 136.656 149.035 136.476 149.179 136.324C149.331 136.172 149.507 136.052 149.707 135.964C149.915 135.876 150.135 135.832 150.367 135.832C150.599 135.832 150.815 135.876 151.015 135.964C151.223 136.052 151.403 136.172 151.555 136.324C151.707 136.476 151.827 136.656 151.915 136.864C152.003 137.064 152.047 137.28 152.047 137.512C152.047 137.752 152.003 137.972 151.915 138.172C151.827 138.372 151.707 138.548 151.555 138.7C151.403 138.852 151.223 138.968 151.015 139.048C150.815 139.136 150.599 139.18 150.367 139.18C150.135 139.18 149.915 139.136 149.707 139.048C149.507 138.968 149.331 138.852 149.179 138.7C149.035 138.548 148.919 138.372 148.831 138.172C148.751 137.972 148.711 137.752 148.711 137.512ZM171.22 136.648V139H161.236V121.72H164.044V136.648H171.22ZM177.696 126.568C178.6 126.568 179.416 126.716 180.144 127.012C180.88 127.308 181.504 127.728 182.016 128.272C182.536 128.816 182.936 129.476 183.216 130.252C183.496 131.028 183.636 131.9 183.636 132.868C183.636 133.836 183.496 134.708 183.216 135.484C182.936 136.26 182.536 136.924 182.016 137.476C181.504 138.02 180.88 138.44 180.144 138.736C179.416 139.032 178.6 139.18 177.696 139.18C176.784 139.18 175.96 139.032 175.224 138.736C174.496 138.44 173.872 138.02 173.352 137.476C172.832 136.924 172.432 136.26 172.152 135.484C171.872 134.708 171.732 133.836 171.732 132.868C171.732 131.9 171.872 131.028 172.152 130.252C172.432 129.476 172.832 128.816 173.352 128.272C173.872 127.728 174.496 127.308 175.224 127.012C175.96 126.716 176.784 126.568 177.696 126.568ZM177.696 137.164C178.8 137.164 179.62 136.796 180.156 136.06C180.7 135.316 180.972 134.256 180.972 132.88C180.972 131.504 180.7 130.444 180.156 129.7C179.62 128.948 178.8 128.572 177.696 128.572C176.576 128.572 175.744 128.948 175.2 129.7C174.656 130.444 174.384 131.504 174.384 132.88C174.384 134.256 174.656 135.316 175.2 136.06C175.744 136.796 176.576 137.164 177.696 137.164ZM194.767 129.16C194.687 129.264 194.611 129.344 194.539 129.4C194.467 129.456 194.363 129.484 194.227 129.484C194.091 129.484 193.947 129.436 193.795 129.34C193.651 129.244 193.475 129.14 193.267 129.028C193.067 128.908 192.823 128.8 192.535 128.704C192.247 128.608 191.887 128.56 191.455 128.56C190.895 128.56 190.403 128.66 189.979 128.86C189.563 129.06 189.211 129.348 188.923 129.724C188.643 130.092 188.431 130.544 188.287 131.08C188.151 131.608 188.083 132.204 188.083 132.868C188.083 133.556 188.159 134.168 188.311 134.704C188.463 135.24 188.679 135.692 188.959 136.06C189.247 136.428 189.591 136.708 189.991 136.9C190.399 137.092 190.855 137.188 191.359 137.188C191.855 137.188 192.259 137.128 192.571 137.008C192.883 136.888 193.143 136.756 193.351 136.612C193.559 136.468 193.735 136.336 193.879 136.216C194.031 136.096 194.191 136.036 194.359 136.036C194.567 136.036 194.727 136.116 194.839 136.276L195.571 137.224C195.275 137.584 194.947 137.888 194.587 138.136C194.227 138.384 193.847 138.588 193.447 138.748C193.047 138.9 192.631 139.008 192.199 139.072C191.767 139.144 191.331 139.18 190.891 139.18C190.131 139.18 189.419 139.04 188.755 138.76C188.099 138.472 187.523 138.06 187.027 137.524C186.539 136.98 186.151 136.32 185.863 135.544C185.583 134.76 185.443 133.868 185.443 132.868C185.443 131.964 185.571 131.128 185.827 130.36C186.083 129.584 186.455 128.916 186.943 128.356C187.439 127.796 188.051 127.36 188.779 127.048C189.507 126.728 190.347 126.568 191.299 126.568C192.187 126.568 192.967 126.712 193.639 127C194.319 127.288 194.923 127.696 195.451 128.224L194.767 129.16ZM204.186 133.648C203.266 133.68 202.49 133.756 201.858 133.876C201.226 133.988 200.714 134.136 200.322 134.32C199.93 134.496 199.646 134.708 199.47 134.956C199.302 135.204 199.218 135.476 199.218 135.772C199.218 136.06 199.262 136.308 199.35 136.516C199.446 136.716 199.574 136.884 199.734 137.02C199.902 137.148 200.094 137.244 200.31 137.308C200.534 137.364 200.778 137.392 201.042 137.392C201.714 137.392 202.29 137.268 202.77 137.02C203.258 136.764 203.73 136.396 204.186 135.916V133.648ZM197.346 128.464C198.73 127.176 200.378 126.532 202.29 126.532C202.994 126.532 203.618 126.648 204.162 126.88C204.714 127.104 205.174 127.424 205.542 127.84C205.918 128.256 206.202 128.752 206.394 129.328C206.594 129.896 206.694 130.528 206.694 131.224V139H205.542C205.294 139 205.106 138.964 204.978 138.892C204.85 138.812 204.742 138.656 204.654 138.424L204.402 137.428C204.09 137.708 203.782 137.96 203.478 138.184C203.174 138.4 202.858 138.584 202.53 138.736C202.21 138.888 201.862 139 201.486 139.072C201.118 139.152 200.71 139.192 200.262 139.192C199.766 139.192 199.302 139.124 198.87 138.988C198.446 138.852 198.078 138.648 197.766 138.376C197.454 138.096 197.206 137.752 197.022 137.344C196.846 136.936 196.758 136.456 196.758 135.904C196.758 135.432 196.882 134.972 197.13 134.524C197.386 134.076 197.802 133.676 198.378 133.324C198.962 132.964 199.726 132.668 200.67 132.436C201.622 132.204 202.794 132.072 204.186 132.04V131.224C204.186 130.344 203.998 129.688 203.622 129.256C203.246 128.824 202.694 128.608 201.966 128.608C201.47 128.608 201.054 128.672 200.718 128.8C200.382 128.92 200.09 129.052 199.842 129.196C199.594 129.34 199.374 129.476 199.182 129.604C198.99 129.724 198.786 129.784 198.57 129.784C198.394 129.784 198.242 129.74 198.114 129.652C197.994 129.556 197.894 129.44 197.814 129.304L197.346 128.464ZM212.345 121.24V139H209.765V121.24H212.345ZM236.134 130.492V137.332C234.414 138.572 232.414 139.192 230.134 139.192C228.734 139.192 227.466 138.976 226.33 138.544C225.202 138.104 224.238 137.496 223.438 136.72C222.638 135.936 222.022 135.004 221.59 133.924C221.158 132.844 220.942 131.656 220.942 130.36C220.942 129.056 221.15 127.864 221.566 126.784C221.982 125.696 222.578 124.764 223.354 123.988C224.13 123.204 225.066 122.6 226.162 122.176C227.258 121.744 228.49 121.528 229.858 121.528C230.554 121.528 231.198 121.584 231.79 121.696C232.39 121.8 232.946 121.948 233.458 122.14C233.97 122.332 234.442 122.564 234.874 122.836C235.306 123.108 235.702 123.412 236.062 123.748L235.258 125.032C235.13 125.232 234.966 125.356 234.766 125.404C234.566 125.452 234.35 125.404 234.118 125.26C233.886 125.124 233.638 124.98 233.374 124.828C233.118 124.676 232.822 124.536 232.486 124.408C232.15 124.272 231.762 124.164 231.322 124.084C230.882 123.996 230.362 123.952 229.762 123.952C228.85 123.952 228.026 124.104 227.29 124.408C226.562 124.704 225.938 125.132 225.418 125.692C224.898 126.244 224.498 126.916 224.218 127.708C223.938 128.5 223.798 129.384 223.798 130.36C223.798 131.392 223.946 132.316 224.242 133.132C224.538 133.94 224.958 134.628 225.502 135.196C226.046 135.756 226.702 136.184 227.47 136.48C228.246 136.776 229.11 136.924 230.062 136.924C230.774 136.924 231.406 136.848 231.958 136.696C232.518 136.544 233.066 136.332 233.602 136.06V132.628H231.19C231.006 132.628 230.862 132.58 230.758 132.484C230.654 132.38 230.602 132.248 230.602 132.088V130.492H236.134ZM241.215 129.028C241.599 128.252 242.063 127.644 242.607 127.204C243.151 126.756 243.803 126.532 244.563 126.532C244.827 126.532 245.075 126.564 245.307 126.628C245.539 126.684 245.747 126.772 245.931 126.892L245.751 128.836C245.719 128.972 245.667 129.068 245.595 129.124C245.531 129.172 245.443 129.196 245.331 129.196C245.211 129.196 245.039 129.176 244.815 129.136C244.591 129.088 244.355 129.064 244.107 129.064C243.747 129.064 243.427 129.116 243.147 129.22C242.875 129.324 242.627 129.476 242.403 129.676C242.187 129.876 241.995 130.12 241.827 130.408C241.659 130.696 241.503 131.024 241.359 131.392V139H238.779V126.76H240.279C240.551 126.76 240.739 126.812 240.843 126.916C240.947 127.012 241.019 127.184 241.059 127.432L241.215 129.028ZM252.509 126.568C253.413 126.568 254.229 126.716 254.957 127.012C255.693 127.308 256.317 127.728 256.829 128.272C257.349 128.816 257.749 129.476 258.029 130.252C258.309 131.028 258.449 131.9 258.449 132.868C258.449 133.836 258.309 134.708 258.029 135.484C257.749 136.26 257.349 136.924 256.829 137.476C256.317 138.02 255.693 138.44 254.957 138.736C254.229 139.032 253.413 139.18 252.509 139.18C251.597 139.18 250.773 139.032 250.037 138.736C249.309 138.44 248.685 138.02 248.165 137.476C247.645 136.924 247.245 136.26 246.965 135.484C246.685 134.708 246.545 133.836 246.545 132.868C246.545 131.9 246.685 131.028 246.965 130.252C247.245 129.476 247.645 128.816 248.165 128.272C248.685 127.728 249.309 127.308 250.037 127.012C250.773 126.716 251.597 126.568 252.509 126.568ZM252.509 137.164C253.613 137.164 254.433 136.796 254.969 136.06C255.513 135.316 255.785 134.256 255.785 132.88C255.785 131.504 255.513 130.444 254.969 129.7C254.433 128.948 253.613 128.572 252.509 128.572C251.389 128.572 250.557 128.948 250.013 129.7C249.469 130.444 249.197 131.504 249.197 132.88C249.197 134.256 249.469 135.316 250.013 136.06C250.557 136.796 251.389 137.164 252.509 137.164ZM277.936 126.76L274.012 139H271.96C271.72 139 271.552 138.844 271.456 138.532L269.02 130.912C268.956 130.696 268.896 130.48 268.84 130.264C268.792 130.048 268.748 129.836 268.708 129.628C268.62 130.06 268.512 130.492 268.384 130.924L265.912 138.532C265.824 138.844 265.636 139 265.348 139H263.392L259.468 126.76H261.508C261.708 126.76 261.872 126.812 262 126.916C262.136 127.012 262.224 127.128 262.264 127.264L264.304 134.392C264.384 134.72 264.452 135.04 264.508 135.352C264.572 135.656 264.628 135.96 264.676 136.264C264.756 135.96 264.84 135.656 264.928 135.352C265.016 135.04 265.108 134.72 265.204 134.392L267.496 127.228C267.536 127.084 267.616 126.968 267.736 126.88C267.864 126.784 268.016 126.736 268.192 126.736H269.32C269.504 126.736 269.66 126.784 269.788 126.88C269.916 126.968 270 127.084 270.04 127.228L272.272 134.392C272.368 134.72 272.456 135.04 272.536 135.352C272.624 135.664 272.704 135.976 272.776 136.288C272.832 135.984 272.892 135.676 272.956 135.364C273.02 135.052 273.096 134.728 273.184 134.392L275.26 127.264C275.308 127.12 275.396 127 275.524 126.904C275.652 126.808 275.808 126.76 275.992 126.76H277.936ZM287.659 131.5C287.659 131.068 287.595 130.668 287.467 130.3C287.347 129.924 287.167 129.6 286.927 129.328C286.687 129.048 286.387 128.832 286.027 128.68C285.675 128.52 285.267 128.44 284.803 128.44C283.867 128.44 283.131 128.708 282.595 129.244C282.059 129.78 281.719 130.532 281.575 131.5H287.659ZM281.503 133.084C281.535 133.78 281.643 134.384 281.827 134.896C282.011 135.4 282.255 135.82 282.559 136.156C282.871 136.492 283.239 136.744 283.663 136.912C284.095 137.072 284.575 137.152 285.103 137.152C285.607 137.152 286.043 137.096 286.411 136.984C286.779 136.864 287.099 136.736 287.371 136.6C287.643 136.456 287.875 136.328 288.067 136.216C288.259 136.096 288.435 136.036 288.595 136.036C288.803 136.036 288.963 136.116 289.075 136.276L289.807 137.224C289.503 137.584 289.159 137.888 288.775 138.136C288.391 138.384 287.983 138.588 287.551 138.748C287.119 138.9 286.675 139.008 286.219 139.072C285.763 139.144 285.319 139.18 284.887 139.18C284.039 139.18 283.251 139.04 282.523 138.76C281.803 138.472 281.175 138.052 280.639 137.5C280.111 136.948 279.695 136.264 279.391 135.448C279.095 134.632 278.947 133.692 278.947 132.628C278.947 131.78 279.079 130.988 279.343 130.252C279.615 129.516 279.999 128.876 280.495 128.332C280.999 127.788 281.607 127.36 282.319 127.048C283.039 126.728 283.851 126.568 284.755 126.568C285.507 126.568 286.203 126.692 286.843 126.94C287.483 127.18 288.035 127.536 288.499 128.008C288.963 128.48 289.323 129.06 289.579 129.748C289.843 130.428 289.975 131.204 289.975 132.076C289.975 132.476 289.931 132.744 289.843 132.88C289.755 133.016 289.595 133.084 289.363 133.084H281.503ZM294.817 129.028C295.201 128.252 295.665 127.644 296.209 127.204C296.753 126.756 297.405 126.532 298.165 126.532C298.429 126.532 298.677 126.564 298.909 126.628C299.141 126.684 299.349 126.772 299.533 126.892L299.353 128.836C299.321 128.972 299.269 129.068 299.197 129.124C299.133 129.172 299.045 129.196 298.933 129.196C298.813 129.196 298.641 129.176 298.417 129.136C298.193 129.088 297.957 129.064 297.709 129.064C297.349 129.064 297.029 129.116 296.749 129.22C296.477 129.324 296.229 129.476 296.005 129.676C295.789 129.876 295.597 130.12 295.429 130.408C295.261 130.696 295.105 131.024 294.961 131.392V139H292.381V126.76H293.881C294.153 126.76 294.341 126.812 294.445 126.916C294.549 127.012 294.621 127.184 294.661 127.432L294.817 129.028ZM308.478 128.98C308.414 129.092 308.342 129.172 308.262 129.22C308.182 129.268 308.082 129.292 307.962 129.292C307.826 129.292 307.678 129.252 307.518 129.172C307.358 129.084 307.17 128.988 306.954 128.884C306.738 128.78 306.482 128.688 306.186 128.608C305.898 128.52 305.558 128.476 305.166 128.476C304.846 128.476 304.554 128.516 304.29 128.596C304.034 128.668 303.814 128.776 303.63 128.92C303.454 129.056 303.318 129.22 303.222 129.412C303.126 129.596 303.078 129.796 303.078 130.012C303.078 130.3 303.166 130.54 303.342 130.732C303.518 130.924 303.75 131.092 304.038 131.236C304.326 131.372 304.654 131.496 305.022 131.608C305.39 131.72 305.766 131.84 306.15 131.968C306.534 132.096 306.91 132.244 307.278 132.412C307.646 132.58 307.974 132.788 308.262 133.036C308.55 133.276 308.782 133.572 308.958 133.924C309.134 134.268 309.222 134.688 309.222 135.184C309.222 135.76 309.118 136.292 308.91 136.78C308.702 137.268 308.398 137.692 307.998 138.052C307.598 138.412 307.098 138.692 306.498 138.892C305.906 139.092 305.226 139.192 304.458 139.192C304.034 139.192 303.622 139.152 303.222 139.072C302.83 139 302.454 138.9 302.094 138.772C301.742 138.636 301.41 138.476 301.098 138.292C300.794 138.108 300.522 137.908 300.282 137.692L300.882 136.708C300.954 136.588 301.042 136.496 301.146 136.432C301.258 136.36 301.394 136.324 301.554 136.324C301.722 136.324 301.886 136.38 302.046 136.492C302.214 136.596 302.406 136.712 302.622 136.84C302.846 136.968 303.114 137.088 303.426 137.2C303.738 137.304 304.126 137.356 304.59 137.356C304.974 137.356 305.306 137.312 305.586 137.224C305.866 137.128 306.098 137 306.282 136.84C306.466 136.68 306.602 136.5 306.69 136.3C306.778 136.092 306.822 135.872 306.822 135.64C306.822 135.328 306.734 135.072 306.558 134.872C306.382 134.672 306.146 134.5 305.85 134.356C305.562 134.212 305.23 134.084 304.854 133.972C304.486 133.86 304.11 133.74 303.726 133.612C303.342 133.484 302.962 133.336 302.586 133.168C302.218 133 301.886 132.788 301.59 132.532C301.302 132.268 301.07 131.952 300.894 131.584C300.718 131.208 300.63 130.752 300.63 130.216C300.63 129.728 300.726 129.264 300.918 128.824C301.118 128.384 301.406 127.996 301.782 127.66C302.166 127.324 302.634 127.06 303.186 126.868C303.746 126.668 304.39 126.568 305.118 126.568C305.942 126.568 306.69 126.7 307.362 126.964C308.034 127.228 308.598 127.588 309.054 128.044L308.478 128.98ZM311.25 137.512C311.25 137.28 311.29 137.064 311.37 136.864C311.458 136.656 311.574 136.476 311.718 136.324C311.87 136.172 312.046 136.052 312.246 135.964C312.454 135.876 312.674 135.832 312.906 135.832C313.138 135.832 313.354 135.876 313.554 135.964C313.762 136.052 313.942 136.172 314.094 136.324C314.246 136.476 314.366 136.656 314.454 136.864C314.542 137.064 314.586 137.28 314.586 137.512C314.586 137.752 314.542 137.972 314.454 138.172C314.366 138.372 314.246 138.548 314.094 138.7C313.942 138.852 313.762 138.968 313.554 139.048C313.354 139.136 313.138 139.18 312.906 139.18C312.674 139.18 312.454 139.136 312.246 139.048C312.046 138.968 311.87 138.852 311.718 138.7C311.574 138.548 311.458 138.372 311.37 138.172C311.29 137.972 311.25 137.752 311.25 137.512Z" fill="#272727" fill-opacity="0.8"/>
<defs>
<clipPath id="clip0_43_613">
<rect width="88" height="88" fill="white" transform="translate(114)"/>
</clipPath>
</defs>
</svg>
