<svg width="372" height="147" viewBox="0 0 372 147" fill="none" xmlns="http://www.w3.org/2000/svg">
<path d="M210.75 53.625L220.104 62.9795C221.062 63.9371 221.822 65.0739 222.34 66.3251C222.858 67.5763 223.125 68.9173 223.125 70.2716V78.7188C223.125 80.0863 222.582 81.3978 221.615 82.3648C220.648 83.3318 219.336 83.875 217.969 83.875H213.5V74.25H210.75V53.625Z" fill="#FA5D3F"/>
<path d="M162.625 79.75V52.25L177.75 42.625H194.25L209.375 52.25V79.75H162.625Z" fill="#FA5D3F"/>
<path d="M194.25 42.625L186 50.875L177.75 42.625L179.125 37.125H192.875L194.25 42.625Z" fill="#FFD4CF"/>
<path d="M193.397 39.2119L192.875 37.125H179.125L178.595 39.2468L183.223 41.5611C184.087 41.9931 185.04 42.2168 186.006 42.2143C186.972 42.2119 187.924 41.9833 188.786 41.547L193.397 39.2119Z" fill="#FBB8B0"/>
<path d="M199.062 20.625H197V15.125H175V20.625H172.938C172.026 20.625 171.151 20.9872 170.507 21.6318C169.862 22.2765 169.5 23.1508 169.5 24.0625V25.4375C169.5 26.3492 169.862 27.2235 170.507 27.8682C171.151 28.5128 172.026 28.875 172.938 28.875H175V31.1883C175 32.1458 175.267 33.0845 175.77 33.8991C176.273 34.7136 176.994 35.3719 177.85 35.8002L184.453 39.1016C184.933 39.3415 185.463 39.4658 185.999 39.4645C186.536 39.4632 187.065 39.3362 187.543 39.0938L194.173 35.7364C195.024 35.3058 195.738 34.6479 196.237 33.8359C196.736 33.0238 197 32.0893 197 31.1362V28.875H199.062C199.974 28.875 200.849 28.5128 201.493 27.8682C202.138 27.2235 202.5 26.3492 202.5 25.4375V24.0625C202.5 23.1508 202.138 22.2765 201.493 21.6318C200.849 20.9872 199.974 20.625 199.062 20.625Z" fill="#FFD4CF"/>
<path d="M179.125 22H181.875V24.75H179.125V22Z" fill="black"/>
<path d="M190.125 22H192.875V24.75H190.125V22Z" fill="black"/>
<path d="M186 34.375C183.687 34.375 181.875 32.8651 181.875 30.9375H184.625C184.625 31.1798 185.147 31.625 186 31.625C186.853 31.625 187.375 31.1798 187.375 30.9375H190.125C190.125 32.8651 188.313 34.375 186 34.375Z" fill="black"/>
<path d="M182.219 4.125H189.781C192.06 4.125 194.246 5.03041 195.858 6.64205C197.47 8.25369 198.375 10.4395 198.375 12.7188V15.125H173.625V12.7188C173.625 10.4395 174.53 8.25369 176.142 6.64205C177.754 5.03041 179.94 4.125 182.219 4.125Z" fill="#FA5D3F"/>
<path d="M193.031 19.8122L189.814 17.6674C188.684 16.9145 187.357 16.5127 186 16.5127C184.643 16.5127 183.316 16.9145 182.186 17.6674L178.969 19.8122C178.452 20.1573 177.85 20.3555 177.228 20.3855C176.607 20.4156 175.989 20.2764 175.44 19.9828C174.892 19.6892 174.433 19.2522 174.114 18.7185C173.794 18.1847 173.625 17.5742 173.625 16.952V15.125L179.322 11.9598C181.365 10.825 183.663 10.2296 186 10.2296C188.336 10.2296 190.635 10.825 192.677 11.9598L198.375 15.125V16.952C198.375 17.5742 198.206 18.1847 197.886 18.7185C197.567 19.2522 197.108 19.6892 196.56 19.9828C196.011 20.2764 195.393 20.4156 194.772 20.3855C194.15 20.3555 193.548 20.1573 193.031 19.8122Z" fill="#FAC850"/>
<path d="M161.25 48.125H210.75V83.875H161.25V48.125Z" fill="#FAC850"/>
<path d="M164 74.25H158.5V83.875H173.625C173.625 81.3223 172.611 78.8741 170.806 77.0691C169.001 75.2641 166.553 74.25 164 74.25Z" fill="#FFD4CF"/>
<path d="M180.5 48.125H191.5V60.5H180.5V48.125Z" fill="#FA7D29"/>
<path d="M180.5 75.625H191.5V83.875H180.5V75.625Z" fill="#FA7D29"/>
<path d="M161.25 53.625L151.896 62.9795C150.938 63.9371 150.178 65.0739 149.66 66.3251C149.142 67.5763 148.875 68.9173 148.875 70.2716V78.7188C148.875 80.0863 149.418 81.3978 150.385 82.3648C151.352 83.3318 152.664 83.875 154.031 83.875H158.5V74.25H161.25V53.625Z" fill="#FA5D3F"/>
<path d="M208 74.25H213.5V83.875H198.375C198.375 81.3223 199.389 78.8741 201.194 77.0691C202.999 75.2641 205.447 74.25 208 74.25Z" fill="#FFD4CF"/>
<path d="M165.375 52.25H168.125V55H165.375V52.25Z" fill="black"/>
<path d="M170.875 52.25H176.375V55H170.875V52.25Z" fill="black"/>
<path d="M165.375 57.75H176.375V60.5H165.375V57.75Z" fill="black"/>
<path d="M200.438 53.625H205.25V57.0625C205.25 57.9742 204.888 58.8485 204.243 59.4932C203.599 60.1378 202.724 60.5 201.812 60.5H197V57.0625C197 56.1508 197.362 55.2765 198.007 54.6318C198.651 53.9872 199.526 53.625 200.438 53.625Z" fill="#FFFFFE"/>
<path d="M201.812 61.875H197C196.635 61.875 196.286 61.7301 196.028 61.4723C195.77 61.2144 195.625 60.8647 195.625 60.5V57.0625C195.626 55.7866 196.134 54.5634 197.036 53.6612C197.938 52.759 199.162 52.2515 200.438 52.25H205.25C205.615 52.25 205.964 52.3949 206.222 52.6527C206.48 52.9106 206.625 53.2603 206.625 53.625V57.0625C206.624 58.3384 206.116 59.5616 205.214 60.4638C204.312 61.366 203.088 61.8735 201.812 61.875ZM198.375 59.125H201.812C202.359 59.1244 202.884 58.9069 203.27 58.5203C203.657 58.1336 203.874 57.6093 203.875 57.0625V55H200.438C199.891 55.0006 199.366 55.2181 198.98 55.6047C198.593 55.9914 198.376 56.5157 198.375 57.0625V59.125Z" fill="black"/>
<path d="M221.077 62.0073L215.847 56.7777L213.903 58.7223L219.132 63.9518C219.965 64.7798 220.625 65.7647 221.074 66.8495C221.523 67.9343 221.753 69.0974 221.75 70.2716V78.7188C221.749 79.7213 221.35 80.6824 220.641 81.3912C219.932 82.1001 218.971 82.4989 217.969 82.5H214.875V75.625H217.625V72.875H212.125V48.125C212.125 47.7603 211.98 47.4106 211.722 47.1527C211.464 46.8949 211.115 46.75 210.75 46.75H203.293L195.451 41.7593L194.313 37.2068L194.794 36.9629C195.873 36.4204 196.78 35.5878 197.413 34.5586C198.045 33.5294 198.379 32.3442 198.375 31.1362V30.25H199.063C200.338 30.2485 201.562 29.741 202.464 28.8388C203.366 27.9366 203.874 26.7134 203.875 25.4375V24.0625C203.874 22.8046 203.38 21.5972 202.5 20.6981C201.621 19.7991 200.424 19.2798 199.166 19.2512C199.55 18.5456 199.751 17.7551 199.75 16.952V12.7188C199.747 10.0758 198.696 7.54195 196.827 5.6731C194.958 3.80424 192.424 2.753 189.781 2.75H182.219C179.576 2.753 177.042 3.80424 175.173 5.6731C173.304 7.54195 172.253 10.0758 172.25 12.7188V16.952C172.25 17.7552 172.451 18.5457 172.834 19.2512C171.577 19.2796 170.38 19.7988 169.5 20.6979C168.62 21.5969 168.126 22.8045 168.125 24.0625V25.4375C168.126 26.7134 168.634 27.9366 169.536 28.8388C170.438 29.741 171.662 30.2485 172.938 30.25H173.625V31.1883C173.621 32.4021 173.957 33.5927 174.595 34.6253C175.233 35.6578 176.148 36.4908 177.235 37.03L177.676 37.2505L176.549 41.7593L168.707 46.75H161.25C160.885 46.75 160.536 46.8949 160.278 47.1527C160.02 47.4106 159.875 47.7603 159.875 48.125V53.0554L154.778 58.1527L156.722 60.0973L159.875 56.9446V72.875H154.375V75.625H157.125V82.5H154.031C153.029 82.4989 152.068 82.1001 151.359 81.3912C150.65 80.6824 150.251 79.7213 150.25 78.7188V70.2716C150.247 69.0975 150.477 67.9343 150.926 66.8495C151.375 65.7647 152.035 64.7798 152.867 63.9518L153.972 62.8473L152.028 60.9027L150.923 62.0073C149.834 63.0901 148.971 64.378 148.384 65.7966C147.796 67.2152 147.496 68.7362 147.5 70.2716V78.7188C147.502 80.4503 148.191 82.1105 149.415 83.3349C150.64 84.5593 152.3 85.248 154.031 85.25H217.969C219.7 85.248 221.36 84.5593 222.585 83.3349C223.809 82.1105 224.498 80.4503 224.5 78.7188V70.2716C224.504 68.7362 224.204 67.2152 223.616 65.7966C223.029 64.378 222.166 63.0901 221.077 62.0073ZM181.875 49.5H190.125V59.125H181.875V49.5ZM192.07 46.75L194.442 44.3781L198.171 46.75H192.07ZM176.089 18.7705C175.758 18.5969 175.481 18.3353 175.289 18.0145C175.097 17.6937 174.997 17.326 175 16.952V15.934L179.99 13.1617C181.826 12.1337 183.896 11.5939 186 11.5939C188.104 11.5939 190.174 12.1337 192.01 13.1617L197 15.934V16.952C197 17.3253 196.899 17.6916 196.707 18.0118C196.515 18.3321 196.24 18.5942 195.911 18.7704C195.582 18.9465 195.211 19.03 194.838 19.012C194.465 18.994 194.104 18.8751 193.794 18.668L190.576 16.5234C189.222 15.6171 187.629 15.1333 186 15.1333C184.371 15.1333 182.778 15.6171 181.424 16.5234L178.207 18.668C177.897 18.8782 177.536 18.9989 177.162 19.017C176.789 19.0351 176.418 18.9498 176.089 18.7705ZM201.125 24.0625V25.4375C201.124 25.9843 200.907 26.5086 200.52 26.8953C200.134 27.2819 199.609 27.4994 199.063 27.5H198.375V22H199.063C199.609 22.0006 200.134 22.2181 200.52 22.6047C200.907 22.9914 201.124 23.5157 201.125 24.0625ZM182.219 5.5H189.781C191.695 5.50214 193.53 6.26337 194.883 7.61668C196.237 8.97 196.998 10.8049 197 12.7188V12.7875L193.345 10.7578C191.101 9.50135 188.572 8.84158 186 8.84158C183.428 8.84158 180.899 9.50135 178.655 10.7578L175 12.7875V12.7188C175.002 10.8049 175.763 8.97 177.117 7.61668C178.47 6.26337 180.305 5.50214 182.219 5.5ZM172.938 27.5C172.391 27.4994 171.866 27.2819 171.48 26.8953C171.093 26.5086 170.876 25.9843 170.875 25.4375V24.0625C170.876 23.5157 171.093 22.9914 171.48 22.6047C171.866 22.2181 172.391 22.0006 172.938 22H173.625V27.5H172.938ZM176.375 31.1883V21.7161C177.549 21.8863 178.745 21.6156 179.732 20.9562L182.949 18.8114C183.852 18.2073 184.914 17.8848 186 17.8848C187.086 17.8848 188.148 18.2073 189.051 18.8114L192.268 20.9562C193.255 21.6154 194.451 21.886 195.625 21.7159V31.1362C195.627 31.8356 195.434 32.5217 195.068 33.1176C194.702 33.7135 194.177 34.1955 193.552 34.5096L186.922 37.8668C186.635 38.0116 186.317 38.0875 185.996 38.0883C185.674 38.0891 185.356 38.0149 185.068 37.8716L178.465 34.5704C177.836 34.2583 177.306 33.776 176.937 33.1782C176.567 32.5804 176.373 31.891 176.375 31.1883ZM183.838 40.332C184.51 40.6664 185.252 40.8396 186.003 40.8377C186.754 40.8357 187.494 40.6589 188.164 40.321L191.797 38.482L192.727 42.2043L188.18 46.75H183.82L179.273 42.2032L180.196 38.5103L183.838 40.332ZM177.558 44.378L179.93 46.75H173.829L177.558 44.378ZM162.625 49.5H179.125V60.5C179.125 60.8647 179.27 61.2144 179.528 61.4723C179.786 61.7301 180.135 61.875 180.5 61.875H191.5C191.865 61.875 192.214 61.7301 192.472 61.4723C192.73 61.2144 192.875 60.8647 192.875 60.5V49.5H209.375V72.875H208C205.322 72.8786 202.736 73.8577 200.728 75.6292C198.719 77.4007 197.424 79.8432 197.086 82.5H192.875V75.625C192.875 75.2603 192.73 74.9106 192.472 74.6527C192.214 74.3949 191.865 74.25 191.5 74.25H180.5C180.135 74.25 179.786 74.3949 179.528 74.6527C179.27 74.9106 179.125 75.2603 179.125 75.625V82.5H174.914C174.576 79.8432 173.281 77.4007 171.272 75.6292C169.264 73.8577 166.678 72.8786 164 72.875H162.625V49.5ZM159.875 82.5V75.625H164C165.949 75.6275 167.834 76.3188 169.323 77.5769C170.812 78.8349 171.808 80.5787 172.135 82.5H159.875ZM181.875 82.5V77H190.125V82.5H181.875ZM212.125 82.5H199.865C200.192 80.5787 201.188 78.8349 202.677 77.5769C204.166 76.3188 206.051 75.6275 208 75.625H212.125V82.5Z" fill="black"/>
<path d="M11.2638 124.672C11.1758 124.816 11.0838 124.924 10.9878 124.996C10.8918 125.06 10.7718 125.092 10.6278 125.092C10.4758 125.092 10.3038 125.028 10.1118 124.9C9.92778 124.772 9.69578 124.632 9.41578 124.48C9.14378 124.32 8.81978 124.176 8.44378 124.048C8.06778 123.912 7.61978 123.844 7.09978 123.844C6.61978 123.844 6.19578 123.904 5.82778 124.024C5.46778 124.144 5.16378 124.312 4.91578 124.528C4.66778 124.744 4.47978 125 4.35178 125.296C4.23178 125.584 4.17178 125.9 4.17178 126.244C4.17178 126.684 4.28778 127.052 4.51978 127.348C4.75178 127.636 5.05578 127.884 5.43178 128.092C5.81578 128.3 6.25178 128.484 6.73978 128.644C7.22778 128.796 7.72378 128.96 8.22778 129.136C8.73978 129.312 9.23978 129.512 9.72778 129.736C10.2158 129.96 10.6478 130.244 11.0238 130.588C11.4078 130.932 11.7158 131.352 11.9478 131.848C12.1798 132.344 12.2958 132.948 12.2958 133.66C12.2958 134.428 12.1638 135.148 11.8998 135.82C11.6358 136.492 11.2518 137.08 10.7478 137.584C10.2518 138.08 9.63578 138.472 8.89978 138.76C8.17178 139.048 7.33978 139.192 6.40378 139.192C5.85178 139.192 5.31178 139.136 4.78378 139.024C4.26378 138.92 3.76378 138.772 3.28378 138.58C2.81178 138.38 2.36778 138.14 1.95178 137.86C1.53578 137.58 1.16378 137.268 0.835781 136.924L1.65178 135.58C1.72378 135.468 1.81578 135.38 1.92778 135.316C2.03978 135.252 2.16378 135.22 2.29978 135.22C2.48378 135.22 2.68778 135.308 2.91178 135.484C3.13578 135.652 3.40378 135.84 3.71578 136.048C4.03578 136.248 4.41978 136.436 4.86778 136.612C5.31578 136.78 5.85178 136.864 6.47578 136.864C7.49178 136.864 8.27578 136.616 8.82778 136.12C9.38778 135.624 9.66778 134.94 9.66778 134.068C9.66778 133.58 9.55178 133.184 9.31978 132.88C9.08778 132.568 8.77978 132.308 8.39578 132.1C8.01978 131.892 7.58778 131.716 7.09978 131.572C6.61178 131.428 6.11578 131.276 5.61178 131.116C5.10778 130.948 4.61178 130.756 4.12378 130.54C3.63578 130.316 3.19978 130.028 2.81578 129.676C2.43978 129.316 2.13578 128.876 1.90378 128.356C1.67178 127.828 1.55578 127.172 1.55578 126.388C1.55578 125.764 1.67578 125.16 1.91578 124.576C2.16378 123.992 2.51978 123.476 2.98378 123.028C3.45578 122.572 4.03578 122.208 4.72378 121.936C5.41178 121.664 6.19578 121.528 7.07578 121.528C8.06778 121.528 8.97578 121.684 9.79978 121.996C10.6318 122.308 11.3478 122.752 11.9478 123.328L11.2638 124.672ZM21.2253 133.648C20.3053 133.68 19.5293 133.756 18.8973 133.876C18.2653 133.988 17.7533 134.136 17.3613 134.32C16.9693 134.496 16.6853 134.708 16.5093 134.956C16.3413 135.204 16.2573 135.476 16.2573 135.772C16.2573 136.06 16.3013 136.308 16.3893 136.516C16.4853 136.716 16.6133 136.884 16.7733 137.02C16.9413 137.148 17.1333 137.244 17.3493 137.308C17.5733 137.364 17.8173 137.392 18.0813 137.392C18.7533 137.392 19.3293 137.268 19.8093 137.02C20.2973 136.764 20.7693 136.396 21.2253 135.916V133.648ZM14.3853 128.464C15.7693 127.176 17.4173 126.532 19.3293 126.532C20.0333 126.532 20.6573 126.648 21.2013 126.88C21.7533 127.104 22.2133 127.424 22.5813 127.84C22.9573 128.256 23.2413 128.752 23.4333 129.328C23.6333 129.896 23.7333 130.528 23.7333 131.224V139H22.5813C22.3333 139 22.1453 138.964 22.0173 138.892C21.8893 138.812 21.7813 138.656 21.6933 138.424L21.4413 137.428C21.1293 137.708 20.8213 137.96 20.5173 138.184C20.2133 138.4 19.8973 138.584 19.5693 138.736C19.2493 138.888 18.9013 139 18.5253 139.072C18.1573 139.152 17.7493 139.192 17.3013 139.192C16.8053 139.192 16.3413 139.124 15.9093 138.988C15.4853 138.852 15.1173 138.648 14.8053 138.376C14.4933 138.096 14.2453 137.752 14.0613 137.344C13.8853 136.936 13.7973 136.456 13.7973 135.904C13.7973 135.432 13.9213 134.972 14.1693 134.524C14.4253 134.076 14.8413 133.676 15.4173 133.324C16.0013 132.964 16.7653 132.668 17.7093 132.436C18.6613 132.204 19.8333 132.072 21.2253 132.04V131.224C21.2253 130.344 21.0373 129.688 20.6613 129.256C20.2853 128.824 19.7333 128.608 19.0053 128.608C18.5093 128.608 18.0933 128.672 17.7573 128.8C17.4213 128.92 17.1293 129.052 16.8813 129.196C16.6333 129.34 16.4133 129.476 16.2213 129.604C16.0293 129.724 15.8253 129.784 15.6093 129.784C15.4333 129.784 15.2813 129.74 15.1533 129.652C15.0333 129.556 14.9333 129.44 14.8533 129.304L14.3853 128.464ZM26.7556 139V126.76H28.3156C28.6676 126.76 28.8916 126.924 28.9876 127.252L29.1556 128.32C29.3796 128.064 29.6116 127.832 29.8516 127.624C30.0916 127.408 30.3476 127.224 30.6196 127.072C30.8996 126.912 31.1956 126.788 31.5076 126.7C31.8276 126.612 32.1716 126.568 32.5396 126.568C32.9316 126.568 33.2916 126.624 33.6196 126.736C33.9476 126.848 34.2356 127.008 34.4836 127.216C34.7396 127.424 34.9596 127.676 35.1436 127.972C35.3276 128.268 35.4796 128.6 35.5996 128.968C35.7836 128.544 36.0156 128.18 36.2956 127.876C36.5756 127.572 36.8876 127.324 37.2316 127.132C37.5756 126.94 37.9396 126.8 38.3236 126.712C38.7156 126.616 39.1116 126.568 39.5116 126.568C40.1676 126.568 40.7516 126.672 41.2636 126.88C41.7836 127.088 42.2196 127.392 42.5716 127.792C42.9316 128.184 43.2036 128.668 43.3876 129.244C43.5716 129.82 43.6636 130.476 43.6636 131.212V139H41.0836V131.212C41.0836 130.348 40.8956 129.7 40.5196 129.268C40.1516 128.828 39.6036 128.608 38.8756 128.608C38.5476 128.608 38.2396 128.664 37.9516 128.776C37.6636 128.888 37.4116 129.052 37.1956 129.268C36.9796 129.484 36.8076 129.756 36.6796 130.084C36.5596 130.404 36.4996 130.78 36.4996 131.212V139H33.9196V131.212C33.9196 130.316 33.7396 129.66 33.3796 129.244C33.0196 128.82 32.4916 128.608 31.7956 128.608C31.3156 128.608 30.8716 128.732 30.4636 128.98C30.0556 129.22 29.6796 129.552 29.3356 129.976V139H26.7556ZM54.7055 131.5C54.7055 131.068 54.6415 130.668 54.5135 130.3C54.3935 129.924 54.2135 129.6 53.9735 129.328C53.7335 129.048 53.4335 128.832 53.0735 128.68C52.7215 128.52 52.3135 128.44 51.8495 128.44C50.9135 128.44 50.1775 128.708 49.6415 129.244C49.1055 129.78 48.7655 130.532 48.6215 131.5H54.7055ZM48.5495 133.084C48.5815 133.78 48.6895 134.384 48.8735 134.896C49.0575 135.4 49.3015 135.82 49.6055 136.156C49.9175 136.492 50.2855 136.744 50.7095 136.912C51.1415 137.072 51.6215 137.152 52.1495 137.152C52.6535 137.152 53.0895 137.096 53.4575 136.984C53.8255 136.864 54.1455 136.736 54.4175 136.6C54.6895 136.456 54.9215 136.328 55.1135 136.216C55.3055 136.096 55.4815 136.036 55.6415 136.036C55.8495 136.036 56.0095 136.116 56.1215 136.276L56.8535 137.224C56.5495 137.584 56.2055 137.888 55.8215 138.136C55.4375 138.384 55.0295 138.588 54.5975 138.748C54.1655 138.9 53.7215 139.008 53.2655 139.072C52.8095 139.144 52.3655 139.18 51.9335 139.18C51.0855 139.18 50.2975 139.04 49.5695 138.76C48.8495 138.472 48.2215 138.052 47.6855 137.5C47.1575 136.948 46.7415 136.264 46.4375 135.448C46.1415 134.632 45.9935 133.692 45.9935 132.628C45.9935 131.78 46.1255 130.988 46.3895 130.252C46.6615 129.516 47.0455 128.876 47.5415 128.332C48.0455 127.788 48.6535 127.36 49.3655 127.048C50.0855 126.728 50.8975 126.568 51.8015 126.568C52.5535 126.568 53.2495 126.692 53.8895 126.94C54.5295 127.18 55.0815 127.536 55.5455 128.008C56.0095 128.48 56.3695 129.06 56.6255 129.748C56.8895 130.428 57.0215 131.204 57.0215 132.076C57.0215 132.476 56.9775 132.744 56.8895 132.88C56.8015 133.016 56.6415 133.084 56.4095 133.084H48.5495ZM81.052 130.36C81.052 131.64 80.844 132.812 80.428 133.876C80.012 134.932 79.424 135.84 78.664 136.6C77.912 137.36 77.004 137.952 75.94 138.376C74.884 138.792 73.708 139 72.412 139H65.884V121.72H72.412C73.708 121.72 74.884 121.932 75.94 122.356C77.004 122.772 77.912 123.36 78.664 124.12C79.424 124.88 80.012 125.792 80.428 126.856C80.844 127.912 81.052 129.08 81.052 130.36ZM78.184 130.36C78.184 129.368 78.048 128.476 77.776 127.684C77.512 126.892 77.128 126.224 76.624 125.68C76.128 125.136 75.524 124.72 74.812 124.432C74.1 124.136 73.3 123.988 72.412 123.988H68.704V136.732H72.412C73.3 136.732 74.1 136.588 74.812 136.3C75.524 136.012 76.128 135.596 76.624 135.052C77.128 134.5 77.512 133.832 77.776 133.048C78.048 132.256 78.184 131.36 78.184 130.36ZM89.8972 133.648C88.9772 133.68 88.2012 133.756 87.5692 133.876C86.9372 133.988 86.4252 134.136 86.0332 134.32C85.6412 134.496 85.3572 134.708 85.1812 134.956C85.0132 135.204 84.9292 135.476 84.9292 135.772C84.9292 136.06 84.9732 136.308 85.0612 136.516C85.1572 136.716 85.2852 136.884 85.4452 137.02C85.6132 137.148 85.8052 137.244 86.0212 137.308C86.2452 137.364 86.4892 137.392 86.7532 137.392C87.4252 137.392 88.0012 137.268 88.4812 137.02C88.9692 136.764 89.4412 136.396 89.8972 135.916V133.648ZM83.0572 128.464C84.4412 127.176 86.0892 126.532 88.0012 126.532C88.7052 126.532 89.3292 126.648 89.8732 126.88C90.4252 127.104 90.8852 127.424 91.2532 127.84C91.6292 128.256 91.9132 128.752 92.1052 129.328C92.3052 129.896 92.4052 130.528 92.4052 131.224V139H91.2532C91.0052 139 90.8172 138.964 90.6892 138.892C90.5612 138.812 90.4532 138.656 90.3652 138.424L90.1132 137.428C89.8012 137.708 89.4932 137.96 89.1892 138.184C88.8852 138.4 88.5692 138.584 88.2412 138.736C87.9212 138.888 87.5732 139 87.1972 139.072C86.8292 139.152 86.4212 139.192 85.9732 139.192C85.4772 139.192 85.0132 139.124 84.5812 138.988C84.1572 138.852 83.7892 138.648 83.4772 138.376C83.1652 138.096 82.9172 137.752 82.7332 137.344C82.5572 136.936 82.4692 136.456 82.4692 135.904C82.4692 135.432 82.5932 134.972 82.8412 134.524C83.0972 134.076 83.5132 133.676 84.0892 133.324C84.6732 132.964 85.4372 132.668 86.3812 132.436C87.3332 132.204 88.5052 132.072 89.8972 132.04V131.224C89.8972 130.344 89.7092 129.688 89.3332 129.256C88.9572 128.824 88.4052 128.608 87.6772 128.608C87.1812 128.608 86.7652 128.672 86.4292 128.8C86.0932 128.92 85.8012 129.052 85.5532 129.196C85.3052 129.34 85.0852 129.476 84.8932 129.604C84.7012 129.724 84.4972 129.784 84.2812 129.784C84.1052 129.784 83.9532 129.74 83.8252 129.652C83.7052 129.556 83.6052 129.44 83.5252 129.304L83.0572 128.464ZM105.959 126.76L99.2153 142.48C99.1273 142.664 99.0193 142.808 98.8913 142.912C98.7713 143.016 98.5833 143.068 98.3273 143.068H96.4193L98.6753 138.172L93.6833 126.76H95.9273C96.1433 126.76 96.3073 126.812 96.4193 126.916C96.5393 127.012 96.6273 127.128 96.6833 127.264L99.5993 134.212C99.6713 134.412 99.7353 134.612 99.7913 134.812C99.8553 135.004 99.9153 135.204 99.9713 135.412C100.035 135.204 100.099 135 100.163 134.8C100.227 134.6 100.299 134.4 100.379 134.2L103.175 127.264C103.231 127.12 103.323 127 103.451 126.904C103.587 126.808 103.735 126.76 103.895 126.76H105.959ZM128.677 130.36C128.677 131.64 128.469 132.812 128.053 133.876C127.637 134.932 127.049 135.84 126.289 136.6C125.537 137.36 124.629 137.952 123.565 138.376C122.509 138.792 121.333 139 120.037 139H113.509V121.72H120.037C121.333 121.72 122.509 121.932 123.565 122.356C124.629 122.772 125.537 123.36 126.289 124.12C127.049 124.88 127.637 125.792 128.053 126.856C128.469 127.912 128.677 129.08 128.677 130.36ZM125.809 130.36C125.809 129.368 125.673 128.476 125.401 127.684C125.137 126.892 124.753 126.224 124.249 125.68C123.753 125.136 123.149 124.72 122.437 124.432C121.725 124.136 120.925 123.988 120.037 123.988H116.329V136.732H120.037C120.925 136.732 121.725 136.588 122.437 136.3C123.149 136.012 123.753 135.596 124.249 135.052C124.753 134.5 125.137 133.832 125.401 133.048C125.673 132.256 125.809 131.36 125.809 130.36ZM139.151 131.5C139.151 131.068 139.087 130.668 138.959 130.3C138.839 129.924 138.659 129.6 138.419 129.328C138.179 129.048 137.879 128.832 137.519 128.68C137.167 128.52 136.759 128.44 136.295 128.44C135.359 128.44 134.623 128.708 134.087 129.244C133.551 129.78 133.211 130.532 133.067 131.5H139.151ZM132.995 133.084C133.027 133.78 133.135 134.384 133.319 134.896C133.503 135.4 133.747 135.82 134.051 136.156C134.363 136.492 134.731 136.744 135.155 136.912C135.587 137.072 136.067 137.152 136.595 137.152C137.099 137.152 137.535 137.096 137.903 136.984C138.271 136.864 138.591 136.736 138.863 136.6C139.135 136.456 139.367 136.328 139.559 136.216C139.751 136.096 139.927 136.036 140.087 136.036C140.295 136.036 140.455 136.116 140.567 136.276L141.299 137.224C140.995 137.584 140.651 137.888 140.267 138.136C139.883 138.384 139.475 138.588 139.043 138.748C138.611 138.9 138.167 139.008 137.711 139.072C137.255 139.144 136.811 139.18 136.379 139.18C135.531 139.18 134.743 139.04 134.015 138.76C133.295 138.472 132.667 138.052 132.131 137.5C131.603 136.948 131.187 136.264 130.883 135.448C130.587 134.632 130.439 133.692 130.439 132.628C130.439 131.78 130.571 130.988 130.835 130.252C131.107 129.516 131.491 128.876 131.987 128.332C132.491 127.788 133.099 127.36 133.811 127.048C134.531 126.728 135.343 126.568 136.247 126.568C136.999 126.568 137.695 126.692 138.335 126.94C138.975 127.18 139.527 127.536 139.991 128.008C140.455 128.48 140.815 129.06 141.071 129.748C141.335 130.428 141.467 131.204 141.467 132.076C141.467 132.476 141.423 132.744 141.335 132.88C141.247 133.016 141.087 133.084 140.855 133.084H132.995ZM146.501 121.24V139H143.921V121.24H146.501ZM152.373 126.76V139H149.793V126.76H152.373ZM152.805 123.064C152.805 123.296 152.757 123.516 152.661 123.724C152.573 123.932 152.449 124.116 152.289 124.276C152.129 124.428 151.941 124.552 151.725 124.648C151.517 124.736 151.293 124.78 151.053 124.78C150.821 124.78 150.601 124.736 150.393 124.648C150.193 124.552 150.017 124.428 149.865 124.276C149.713 124.116 149.589 123.932 149.493 123.724C149.405 123.516 149.361 123.296 149.361 123.064C149.361 122.824 149.405 122.6 149.493 122.392C149.589 122.184 149.713 122.004 149.865 121.852C150.017 121.692 150.193 121.568 150.393 121.48C150.601 121.384 150.821 121.336 151.053 121.336C151.293 121.336 151.517 121.384 151.725 121.48C151.941 121.568 152.129 121.692 152.289 121.852C152.449 122.004 152.573 122.184 152.661 122.392C152.757 122.6 152.805 122.824 152.805 123.064ZM166.391 126.76L161.471 139H159.143L154.223 126.76H156.347C156.547 126.76 156.711 126.812 156.839 126.916C156.975 127.012 157.063 127.128 157.103 127.264L159.815 134.392C159.927 134.728 160.027 135.06 160.115 135.388C160.203 135.716 160.279 136.048 160.343 136.384C160.407 136.048 160.483 135.72 160.571 135.4C160.667 135.072 160.771 134.736 160.883 134.392L163.643 127.264C163.691 127.12 163.779 127 163.907 126.904C164.035 126.808 164.191 126.76 164.375 126.76H166.391ZM175.83 131.5C175.83 131.068 175.766 130.668 175.638 130.3C175.518 129.924 175.338 129.6 175.098 129.328C174.858 129.048 174.558 128.832 174.198 128.68C173.846 128.52 173.438 128.44 172.974 128.44C172.038 128.44 171.302 128.708 170.766 129.244C170.23 129.78 169.89 130.532 169.746 131.5H175.83ZM169.674 133.084C169.706 133.78 169.814 134.384 169.998 134.896C170.182 135.4 170.426 135.82 170.73 136.156C171.042 136.492 171.41 136.744 171.834 136.912C172.266 137.072 172.746 137.152 173.274 137.152C173.778 137.152 174.214 137.096 174.582 136.984C174.95 136.864 175.27 136.736 175.542 136.6C175.814 136.456 176.046 136.328 176.238 136.216C176.43 136.096 176.606 136.036 176.766 136.036C176.974 136.036 177.134 136.116 177.246 136.276L177.978 137.224C177.674 137.584 177.33 137.888 176.946 138.136C176.562 138.384 176.154 138.588 175.722 138.748C175.29 138.9 174.846 139.008 174.39 139.072C173.934 139.144 173.49 139.18 173.058 139.18C172.21 139.18 171.422 139.04 170.694 138.76C169.974 138.472 169.346 138.052 168.81 137.5C168.282 136.948 167.866 136.264 167.562 135.448C167.266 134.632 167.118 133.692 167.118 132.628C167.118 131.78 167.25 130.988 167.514 130.252C167.786 129.516 168.17 128.876 168.666 128.332C169.17 127.788 169.778 127.36 170.49 127.048C171.21 126.728 172.022 126.568 172.926 126.568C173.678 126.568 174.374 126.692 175.014 126.94C175.654 127.18 176.206 127.536 176.67 128.008C177.134 128.48 177.494 129.06 177.75 129.748C178.014 130.428 178.146 131.204 178.146 132.076C178.146 132.476 178.102 132.744 178.014 132.88C177.926 133.016 177.766 133.084 177.534 133.084H169.674ZM182.988 129.028C183.372 128.252 183.836 127.644 184.38 127.204C184.924 126.756 185.576 126.532 186.336 126.532C186.6 126.532 186.848 126.564 187.08 126.628C187.312 126.684 187.52 126.772 187.704 126.892L187.524 128.836C187.492 128.972 187.44 129.068 187.368 129.124C187.304 129.172 187.216 129.196 187.104 129.196C186.984 129.196 186.812 129.176 186.588 129.136C186.364 129.088 186.128 129.064 185.88 129.064C185.52 129.064 185.2 129.116 184.92 129.22C184.648 129.324 184.4 129.476 184.176 129.676C183.96 129.876 183.768 130.12 183.6 130.408C183.432 130.696 183.276 131.024 183.132 131.392V139H180.552V126.76H182.052C182.324 126.76 182.512 126.812 182.616 126.916C182.72 127.012 182.792 127.184 182.832 127.432L182.988 129.028ZM200.272 126.76L193.528 142.48C193.44 142.664 193.332 142.808 193.204 142.912C193.084 143.016 192.896 143.068 192.64 143.068H190.732L192.988 138.172L187.996 126.76H190.24C190.456 126.76 190.62 126.812 190.732 126.916C190.852 127.012 190.94 127.128 190.996 127.264L193.912 134.212C193.984 134.412 194.048 134.612 194.104 134.812C194.168 135.004 194.228 135.204 194.284 135.412C194.348 135.204 194.412 135 194.476 134.8C194.54 134.6 194.612 134.4 194.692 134.2L197.488 127.264C197.544 127.12 197.636 127 197.764 126.904C197.9 126.808 198.048 126.76 198.208 126.76H200.272ZM200.688 137.512C200.688 137.28 200.728 137.064 200.808 136.864C200.896 136.656 201.012 136.476 201.156 136.324C201.308 136.172 201.484 136.052 201.684 135.964C201.892 135.876 202.112 135.832 202.344 135.832C202.576 135.832 202.792 135.876 202.992 135.964C203.2 136.052 203.38 136.172 203.532 136.324C203.684 136.476 203.804 136.656 203.892 136.864C203.98 137.064 204.024 137.28 204.024 137.512C204.024 137.752 203.98 137.972 203.892 138.172C203.804 138.372 203.684 138.548 203.532 138.7C203.38 138.852 203.2 138.968 202.992 139.048C202.792 139.136 202.576 139.18 202.344 139.18C202.112 139.18 201.892 139.136 201.684 139.048C201.484 138.968 201.308 138.852 201.156 138.7C201.012 138.548 200.896 138.372 200.808 138.172C200.728 137.972 200.688 137.752 200.688 137.512ZM225.212 135.148C225.364 135.148 225.496 135.208 225.608 135.328L226.724 136.54C226.02 137.388 225.156 138.044 224.132 138.508C223.108 138.964 221.884 139.192 220.46 139.192C219.196 139.192 218.052 138.976 217.028 138.544C216.012 138.104 215.144 137.496 214.424 136.72C213.704 135.936 213.148 135.004 212.756 133.924C212.372 132.844 212.18 131.656 212.18 130.36C212.18 129.064 212.384 127.876 212.792 126.796C213.208 125.708 213.788 124.776 214.532 124C215.284 123.216 216.18 122.608 217.22 122.176C218.268 121.744 219.42 121.528 220.676 121.528C221.924 121.528 223.024 121.732 223.976 122.14C224.936 122.54 225.768 123.076 226.472 123.748L225.548 125.056C225.484 125.144 225.408 125.22 225.32 125.284C225.232 125.348 225.112 125.38 224.96 125.38C224.8 125.38 224.616 125.308 224.408 125.164C224.208 125.012 223.948 124.848 223.628 124.672C223.316 124.488 222.92 124.324 222.44 124.18C221.968 124.028 221.376 123.952 220.664 123.952C219.84 123.952 219.084 124.096 218.396 124.384C217.708 124.672 217.116 125.092 216.62 125.644C216.124 126.196 215.736 126.868 215.456 127.66C215.184 128.452 215.048 129.352 215.048 130.36C215.048 131.376 215.192 132.284 215.48 133.084C215.768 133.876 216.164 134.548 216.668 135.1C217.172 135.644 217.764 136.06 218.444 136.348C219.124 136.636 219.856 136.78 220.64 136.78C221.12 136.78 221.548 136.756 221.924 136.708C222.308 136.652 222.66 136.568 222.98 136.456C223.3 136.336 223.6 136.188 223.88 136.012C224.168 135.836 224.452 135.62 224.732 135.364C224.892 135.22 225.052 135.148 225.212 135.148ZM231.298 121.24V139H228.718V121.24H231.298ZM237.17 126.76V139H234.59V126.76H237.17ZM237.602 123.064C237.602 123.296 237.554 123.516 237.458 123.724C237.37 123.932 237.246 124.116 237.086 124.276C236.926 124.428 236.738 124.552 236.522 124.648C236.314 124.736 236.09 124.78 235.85 124.78C235.618 124.78 235.398 124.736 235.19 124.648C234.99 124.552 234.814 124.428 234.662 124.276C234.51 124.116 234.386 123.932 234.29 123.724C234.202 123.516 234.158 123.296 234.158 123.064C234.158 122.824 234.202 122.6 234.29 122.392C234.386 122.184 234.51 122.004 234.662 121.852C234.814 121.692 234.99 121.568 235.19 121.48C235.398 121.384 235.618 121.336 235.85 121.336C236.09 121.336 236.314 121.384 236.522 121.48C236.738 121.568 236.926 121.692 237.086 121.852C237.246 122.004 237.37 122.184 237.458 122.392C237.554 122.6 237.602 122.824 237.602 123.064ZM249.064 129.16C248.984 129.264 248.908 129.344 248.836 129.4C248.764 129.456 248.66 129.484 248.524 129.484C248.388 129.484 248.244 129.436 248.092 129.34C247.948 129.244 247.772 129.14 247.564 129.028C247.364 128.908 247.12 128.8 246.832 128.704C246.544 128.608 246.184 128.56 245.752 128.56C245.192 128.56 244.7 128.66 244.276 128.86C243.86 129.06 243.508 129.348 243.22 129.724C242.94 130.092 242.728 130.544 242.584 131.08C242.448 131.608 242.38 132.204 242.38 132.868C242.38 133.556 242.456 134.168 242.608 134.704C242.76 135.24 242.976 135.692 243.256 136.06C243.544 136.428 243.888 136.708 244.288 136.9C244.696 137.092 245.152 137.188 245.656 137.188C246.152 137.188 246.556 137.128 246.868 137.008C247.18 136.888 247.44 136.756 247.648 136.612C247.856 136.468 248.032 136.336 248.176 136.216C248.328 136.096 248.488 136.036 248.656 136.036C248.864 136.036 249.024 136.116 249.136 136.276L249.868 137.224C249.572 137.584 249.244 137.888 248.884 138.136C248.524 138.384 248.144 138.588 247.744 138.748C247.344 138.9 246.928 139.008 246.496 139.072C246.064 139.144 245.628 139.18 245.188 139.18C244.428 139.18 243.716 139.04 243.052 138.76C242.396 138.472 241.82 138.06 241.324 137.524C240.836 136.98 240.448 136.32 240.16 135.544C239.88 134.76 239.74 133.868 239.74 132.868C239.74 131.964 239.868 131.128 240.124 130.36C240.38 129.584 240.752 128.916 241.24 128.356C241.736 127.796 242.348 127.36 243.076 127.048C243.804 126.728 244.644 126.568 245.596 126.568C246.484 126.568 247.264 126.712 247.936 127C248.616 127.288 249.22 127.696 249.748 128.224L249.064 129.16ZM254.523 121.24V131.536H255.075C255.251 131.536 255.395 131.512 255.507 131.464C255.619 131.416 255.735 131.316 255.855 131.164L259.287 127.24C259.407 127.08 259.539 126.96 259.683 126.88C259.827 126.8 260.011 126.76 260.235 126.76H262.575L258.447 131.416C258.207 131.728 257.943 131.976 257.655 132.16C257.815 132.272 257.955 132.4 258.075 132.544C258.195 132.68 258.311 132.836 258.423 133.012L262.827 139H260.523C260.315 139 260.135 138.968 259.983 138.904C259.839 138.832 259.711 138.704 259.599 138.52L256.059 133.72C255.939 133.536 255.819 133.42 255.699 133.372C255.579 133.316 255.399 133.288 255.159 133.288H254.523V139H251.943V121.24H254.523ZM274.635 130.72C273.899 131.152 273.355 131.656 273.003 132.232C272.651 132.808 272.475 133.432 272.475 134.104C272.475 134.576 272.559 135 272.727 135.376C272.903 135.744 273.131 136.056 273.411 136.312C273.699 136.568 274.027 136.764 274.395 136.9C274.771 137.036 275.159 137.104 275.559 137.104C276.351 137.104 277.071 136.972 277.719 136.708C278.367 136.436 278.943 136.072 279.447 135.616L274.635 130.72ZM285.987 139H283.479C283.343 139 283.219 138.992 283.107 138.976C283.003 138.96 282.903 138.936 282.807 138.904C282.719 138.864 282.631 138.812 282.543 138.748C282.463 138.684 282.375 138.6 282.279 138.496L280.839 137.032C280.079 137.704 279.215 138.232 278.247 138.616C277.287 139 276.243 139.192 275.115 139.192C274.459 139.192 273.815 139.08 273.183 138.856C272.559 138.632 271.999 138.312 271.503 137.896C271.007 137.472 270.607 136.96 270.303 136.36C269.999 135.752 269.847 135.068 269.847 134.308C269.847 133.756 269.935 133.236 270.111 132.748C270.295 132.26 270.547 131.808 270.867 131.392C271.195 130.968 271.579 130.588 272.019 130.252C272.459 129.916 272.943 129.628 273.471 129.388C273.015 128.78 272.683 128.188 272.475 127.612C272.267 127.036 272.163 126.452 272.163 125.86C272.163 125.268 272.271 124.708 272.487 124.18C272.703 123.652 273.015 123.192 273.423 122.8C273.839 122.408 274.339 122.1 274.923 121.876C275.515 121.644 276.183 121.528 276.927 121.528C277.599 121.528 278.203 121.632 278.739 121.84C279.283 122.048 279.747 122.328 280.131 122.68C280.523 123.032 280.827 123.436 281.043 123.892C281.267 124.348 281.399 124.82 281.439 125.308L279.807 125.644C279.663 125.676 279.527 125.656 279.399 125.584C279.279 125.512 279.187 125.392 279.123 125.224C279.059 125.016 278.967 124.812 278.847 124.612C278.727 124.404 278.579 124.22 278.403 124.06C278.227 123.9 278.015 123.772 277.767 123.676C277.527 123.572 277.247 123.52 276.927 123.52C276.559 123.52 276.227 123.58 275.931 123.7C275.643 123.82 275.395 123.988 275.187 124.204C274.987 124.412 274.831 124.656 274.719 124.936C274.615 125.216 274.563 125.516 274.563 125.836C274.563 126.092 274.591 126.34 274.647 126.58C274.703 126.82 274.795 127.06 274.923 127.3C275.051 127.54 275.211 127.788 275.403 128.044C275.603 128.292 275.843 128.56 276.123 128.848L280.887 133.756C281.175 133.228 281.403 132.68 281.571 132.112C281.739 131.536 281.851 130.956 281.907 130.372C281.923 130.204 281.979 130.072 282.075 129.976C282.171 129.872 282.299 129.82 282.459 129.82H284.055C284.047 130.82 283.895 131.784 283.599 132.712C283.311 133.632 282.903 134.488 282.375 135.28L285.987 139ZM306.142 135.148C306.294 135.148 306.426 135.208 306.538 135.328L307.654 136.54C306.95 137.388 306.086 138.044 305.062 138.508C304.038 138.964 302.814 139.192 301.39 139.192C300.126 139.192 298.982 138.976 297.958 138.544C296.942 138.104 296.074 137.496 295.354 136.72C294.634 135.936 294.078 135.004 293.686 133.924C293.302 132.844 293.11 131.656 293.11 130.36C293.11 129.064 293.314 127.876 293.722 126.796C294.138 125.708 294.718 124.776 295.462 124C296.214 123.216 297.11 122.608 298.15 122.176C299.198 121.744 300.35 121.528 301.606 121.528C302.854 121.528 303.954 121.732 304.906 122.14C305.866 122.54 306.698 123.076 307.402 123.748L306.478 125.056C306.414 125.144 306.338 125.22 306.25 125.284C306.162 125.348 306.042 125.38 305.89 125.38C305.73 125.38 305.546 125.308 305.338 125.164C305.138 125.012 304.878 124.848 304.558 124.672C304.246 124.488 303.85 124.324 303.37 124.18C302.898 124.028 302.306 123.952 301.594 123.952C300.77 123.952 300.014 124.096 299.326 124.384C298.638 124.672 298.046 125.092 297.55 125.644C297.054 126.196 296.666 126.868 296.386 127.66C296.114 128.452 295.978 129.352 295.978 130.36C295.978 131.376 296.122 132.284 296.41 133.084C296.698 133.876 297.094 134.548 297.598 135.1C298.102 135.644 298.694 136.06 299.374 136.348C300.054 136.636 300.786 136.78 301.57 136.78C302.05 136.78 302.478 136.756 302.854 136.708C303.238 136.652 303.59 136.568 303.91 136.456C304.23 136.336 304.53 136.188 304.81 136.012C305.098 135.836 305.382 135.62 305.662 135.364C305.822 135.22 305.982 135.148 306.142 135.148ZM314.634 126.568C315.538 126.568 316.354 126.716 317.082 127.012C317.818 127.308 318.442 127.728 318.954 128.272C319.474 128.816 319.874 129.476 320.154 130.252C320.434 131.028 320.574 131.9 320.574 132.868C320.574 133.836 320.434 134.708 320.154 135.484C319.874 136.26 319.474 136.924 318.954 137.476C318.442 138.02 317.818 138.44 317.082 138.736C316.354 139.032 315.538 139.18 314.634 139.18C313.722 139.18 312.898 139.032 312.162 138.736C311.434 138.44 310.81 138.02 310.29 137.476C309.77 136.924 309.37 136.26 309.09 135.484C308.81 134.708 308.67 133.836 308.67 132.868C308.67 131.9 308.81 131.028 309.09 130.252C309.37 129.476 309.77 128.816 310.29 128.272C310.81 127.728 311.434 127.308 312.162 127.012C312.898 126.716 313.722 126.568 314.634 126.568ZM314.634 137.164C315.738 137.164 316.558 136.796 317.094 136.06C317.638 135.316 317.91 134.256 317.91 132.88C317.91 131.504 317.638 130.444 317.094 129.7C316.558 128.948 315.738 128.572 314.634 128.572C313.514 128.572 312.682 128.948 312.138 129.7C311.594 130.444 311.322 131.504 311.322 132.88C311.322 134.256 311.594 135.316 312.138 136.06C312.682 136.796 313.514 137.164 314.634 137.164ZM325.68 121.24V139H323.1V121.24H325.68ZM331.493 121.24V139H328.913V121.24H331.493ZM342.705 131.5C342.705 131.068 342.641 130.668 342.513 130.3C342.393 129.924 342.213 129.6 341.973 129.328C341.733 129.048 341.433 128.832 341.073 128.68C340.721 128.52 340.313 128.44 339.849 128.44C338.913 128.44 338.177 128.708 337.641 129.244C337.105 129.78 336.765 130.532 336.621 131.5H342.705ZM336.549 133.084C336.581 133.78 336.689 134.384 336.873 134.896C337.057 135.4 337.301 135.82 337.605 136.156C337.917 136.492 338.285 136.744 338.709 136.912C339.141 137.072 339.621 137.152 340.149 137.152C340.653 137.152 341.089 137.096 341.457 136.984C341.825 136.864 342.145 136.736 342.417 136.6C342.689 136.456 342.921 136.328 343.113 136.216C343.305 136.096 343.481 136.036 343.641 136.036C343.849 136.036 344.009 136.116 344.121 136.276L344.853 137.224C344.549 137.584 344.205 137.888 343.821 138.136C343.437 138.384 343.029 138.588 342.597 138.748C342.165 138.9 341.721 139.008 341.265 139.072C340.809 139.144 340.365 139.18 339.933 139.18C339.085 139.18 338.297 139.04 337.569 138.76C336.849 138.472 336.221 138.052 335.685 137.5C335.157 136.948 334.741 136.264 334.437 135.448C334.141 134.632 333.993 133.692 333.993 132.628C333.993 131.78 334.125 130.988 334.389 130.252C334.661 129.516 335.045 128.876 335.541 128.332C336.045 127.788 336.653 127.36 337.365 127.048C338.085 126.728 338.897 126.568 339.801 126.568C340.553 126.568 341.249 126.692 341.889 126.94C342.529 127.18 343.081 127.536 343.545 128.008C344.009 128.48 344.369 129.06 344.625 129.748C344.889 130.428 345.021 131.204 345.021 132.076C345.021 132.476 344.977 132.744 344.889 132.88C344.801 133.016 344.641 133.084 344.409 133.084H336.549ZM356.079 129.16C355.999 129.264 355.923 129.344 355.851 129.4C355.779 129.456 355.675 129.484 355.539 129.484C355.403 129.484 355.259 129.436 355.107 129.34C354.963 129.244 354.787 129.14 354.579 129.028C354.379 128.908 354.135 128.8 353.847 128.704C353.559 128.608 353.199 128.56 352.767 128.56C352.207 128.56 351.715 128.66 351.291 128.86C350.875 129.06 350.523 129.348 350.235 129.724C349.955 130.092 349.743 130.544 349.599 131.08C349.463 131.608 349.395 132.204 349.395 132.868C349.395 133.556 349.471 134.168 349.623 134.704C349.775 135.24 349.991 135.692 350.271 136.06C350.559 136.428 350.903 136.708 351.303 136.9C351.711 137.092 352.167 137.188 352.671 137.188C353.167 137.188 353.571 137.128 353.883 137.008C354.195 136.888 354.455 136.756 354.663 136.612C354.871 136.468 355.047 136.336 355.191 136.216C355.343 136.096 355.503 136.036 355.671 136.036C355.879 136.036 356.039 136.116 356.151 136.276L356.883 137.224C356.587 137.584 356.259 137.888 355.899 138.136C355.539 138.384 355.159 138.588 354.759 138.748C354.359 138.9 353.943 139.008 353.511 139.072C353.079 139.144 352.643 139.18 352.203 139.18C351.443 139.18 350.731 139.04 350.067 138.76C349.411 138.472 348.835 138.06 348.339 137.524C347.851 136.98 347.463 136.32 347.175 135.544C346.895 134.76 346.755 133.868 346.755 132.868C346.755 131.964 346.883 131.128 347.139 130.36C347.395 129.584 347.767 128.916 348.255 128.356C348.751 127.796 349.363 127.36 350.091 127.048C350.819 126.728 351.659 126.568 352.611 126.568C353.499 126.568 354.279 126.712 354.951 127C355.631 127.288 356.235 127.696 356.763 128.224L356.079 129.16ZM362.883 139.192C361.867 139.192 361.083 138.908 360.531 138.34C359.987 137.764 359.715 136.956 359.715 135.916V128.788H358.371C358.227 128.788 358.103 128.744 357.999 128.656C357.895 128.56 357.843 128.42 357.843 128.236V127.192L359.823 126.904L360.387 123.364C360.427 123.228 360.495 123.12 360.591 123.04C360.687 122.952 360.815 122.908 360.975 122.908H362.295V126.928H365.691V128.788H362.295V135.736C362.295 136.176 362.403 136.512 362.619 136.744C362.835 136.976 363.123 137.092 363.483 137.092C363.683 137.092 363.855 137.068 363.999 137.02C364.143 136.964 364.267 136.908 364.371 136.852C364.475 136.788 364.563 136.732 364.635 136.684C364.715 136.628 364.791 136.6 364.863 136.6C365.007 136.6 365.123 136.68 365.211 136.84L365.979 138.1C365.579 138.452 365.107 138.724 364.563 138.916C364.019 139.1 363.459 139.192 362.883 139.192ZM367.328 137.512C367.328 137.28 367.368 137.064 367.448 136.864C367.536 136.656 367.652 136.476 367.796 136.324C367.948 136.172 368.124 136.052 368.324 135.964C368.532 135.876 368.752 135.832 368.984 135.832C369.216 135.832 369.432 135.876 369.632 135.964C369.84 136.052 370.02 136.172 370.172 136.324C370.324 136.476 370.444 136.656 370.532 136.864C370.62 137.064 370.664 137.28 370.664 137.512C370.664 137.752 370.62 137.972 370.532 138.172C370.444 138.372 370.324 138.548 370.172 138.7C370.02 138.852 369.84 138.968 369.632 139.048C369.432 139.136 369.216 139.18 368.984 139.18C368.752 139.18 368.532 139.136 368.324 139.048C368.124 138.968 367.948 138.852 367.796 138.7C367.652 138.548 367.536 138.372 367.448 138.172C367.368 137.972 367.328 137.752 367.328 137.512Z" fill="#272727" fill-opacity="0.8"/>
</svg>
