<svg width="202" height="147" viewBox="0 0 202 147" fill="none" xmlns="http://www.w3.org/2000/svg">
<g clip-path="url(#clip0_43_651)">
<path d="M83.8663 42.5807V32.6452C83.8663 23.2391 91.4925 15.6129 100.899 15.6129C110.305 15.6129 117.931 23.2391 117.931 32.6452V42.5807H83.8663Z" fill="#D3A06C"/>
<path d="M100.899 15.6129C100.419 15.6129 99.949 15.6456 99.4792 15.6839C108.22 16.4078 115.092 23.7174 115.092 32.6452V42.5807H117.931V32.6452C117.931 23.2391 110.305 15.6129 100.899 15.6129Z" fill="#B27946"/>
<path d="M95.2211 75.2258H126.447L123.783 67.2348C122.799 64.2854 120.287 62.1053 117.227 61.5489L106.576 59.6129H95.2211L84.5688 61.5489C81.5101 62.1053 78.9964 64.284 78.0128 67.2348L76.7695 72.8853V75.2258H95.2211Z" fill="#92E0C0"/>
<path d="M95.2211 55.3548V59.6129L100.899 65.2903L106.576 59.6129V55.3548H95.2211Z" fill="#F9E0A6"/>
<path d="M112.253 38.3226H113.673C116.025 38.3226 117.931 40.2288 117.931 42.5806C117.931 44.9325 116.025 46.8387 113.673 46.8387H112.253V38.3226Z" fill="#F9E0A6"/>
<path d="M89.5437 38.3226H88.1243C85.7725 38.3226 83.8663 40.2288 83.8663 42.5806C83.8663 44.9325 85.7725 46.8387 88.1243 46.8387H89.5437V38.3226Z" fill="#F9E0A6"/>
<path d="M88.1243 36.9032V45.4193C88.1243 52.475 93.8429 58.1935 100.899 58.1935C107.954 58.1935 113.673 52.475 113.673 45.4193V36.9032C109.129 36.9032 104.771 35.0978 101.557 31.8844L100.899 31.2258L100.24 31.8844C97.0265 35.0978 92.6677 36.9032 88.1243 36.9032Z" fill="#F9E0A6"/>
<path d="M110.834 45.4194C110.834 51.9938 105.865 57.403 99.4792 58.1098C99.9461 58.1623 100.419 58.1936 100.899 58.1936C107.954 58.1936 113.673 52.475 113.673 45.4194V36.9032C112.715 36.9032 111.767 36.8053 110.834 36.6492V45.4194Z" fill="#EABD8C"/>
<path d="M120.769 1.41934H140.64C142.209 1.41934 143.479 2.68966 143.479 4.25805V15.6129C143.479 17.1813 142.209 18.4516 140.64 18.4516H136.382L125.028 25.5484L126.244 18.4516H120.769C119.201 18.4516 117.931 17.1813 117.931 15.6129V4.25805C117.931 2.68966 119.201 1.41934 120.769 1.41934Z" fill="#ECECEC"/>
<path d="M120.297 75.2258H126.447L123.783 67.2348C122.799 64.2854 120.287 62.1053 117.227 61.5489L106.576 59.6129L116.788 65.2861C118.395 66.1789 119.471 67.7941 119.674 69.6222L120.297 75.2258Z" fill="#48C397"/>
<path d="M89.5437 70.2368L84.4539 74.8397C83.3453 75.9483 81.5484 75.9483 80.4399 74.8397L70.2603 64.6601C69.1518 63.5516 69.1518 61.7547 70.2603 60.6462L74.8633 56.0432L66.3472 47.5271L61.0146 52.8596C57.6891 56.1852 57.6891 61.5773 61.0146 64.9028L80.1972 84.0854C83.5228 87.411 88.9149 87.411 92.2404 84.0854L98.0598 78.7529L89.5437 70.2368Z" fill="#FB5968"/>
<path d="M125.13 66.7863C123.981 63.3444 121.052 60.8037 117.481 60.1537L107.995 58.4277V57.6925C109.646 56.7344 111.082 55.4528 112.226 53.9355H115.092C117.44 53.9355 119.35 52.025 119.35 49.6774V32.6452C119.35 22.4712 111.072 14.1935 100.899 14.1935C90.7246 14.1935 82.4469 22.4712 82.4469 32.6452V42.5806C82.4469 45.3172 84.3928 47.6066 86.9732 48.1403C87.7695 52.2195 90.3186 55.6713 93.8017 57.6925V58.4277L84.3148 60.1537C80.7451 60.8037 77.8141 63.3444 76.6673 66.7863L76.0996 68.491L71.2652 63.6566C70.7117 63.1031 70.7117 62.2018 71.2652 61.6482L76.8717 56.0432L66.3486 45.5201L60.0126 51.8561C58.1362 53.7325 57.1029 56.2277 57.1029 58.8819C57.1029 61.5361 58.1362 64.0299 60.0126 65.9063L79.1952 85.0889C81.0715 86.9653 83.5668 88 86.221 88C88.8752 88 91.369 86.9653 93.2014 85.1315L100.115 78.7969L97.959 76.6452H128.416L125.13 66.7863ZM100.899 63.2833L96.6404 59.0253V58.9586C97.986 59.3815 99.4153 59.6129 100.899 59.6129C102.382 59.6129 103.811 59.3815 105.157 58.9586V59.0253L100.899 63.2833ZM115.092 51.0968H113.898C114.31 50.1586 114.622 49.1693 114.824 48.1403C115.431 48.0139 115.991 47.7726 116.511 47.4689V49.6774C116.511 50.4609 115.874 51.0968 115.092 51.0968ZM115.092 40.1365C115.937 40.629 116.511 41.5346 116.511 42.5806C116.511 43.6267 115.937 44.5323 115.092 45.0248V40.1365ZM85.2856 42.5806C85.2856 41.5346 85.8605 40.629 86.705 40.1365V45.0248C85.8605 44.5323 85.2856 43.6267 85.2856 42.5806ZM86.705 35.4839V37.1048C86.1997 37.2368 85.7256 37.4355 85.2856 37.6924V32.6452C85.2856 24.0368 92.2901 17.0323 100.899 17.0323C109.507 17.0323 116.511 24.0368 116.511 32.6452V37.6924C116.071 37.4355 115.597 37.2353 115.092 37.1048V35.4839H113.673C109.476 35.4839 105.53 33.8488 102.561 30.8809L100.899 29.2188L99.2365 30.8809C96.2672 33.8488 92.3214 35.4839 88.1243 35.4839H86.705ZM89.5437 45.4193V38.2686C93.806 37.9479 97.7802 36.1893 100.899 33.2243C104.017 36.1893 107.991 37.9493 112.253 38.2686V45.4193C112.253 47.4888 111.688 49.4248 110.718 51.0968H100.899V53.9355H108.384C106.383 55.6969 103.767 56.7742 100.899 56.7742C94.6377 56.7742 89.5437 51.6801 89.5437 45.4193ZM72.8563 56.0432L71.3149 57.5846L64.8057 51.0755L66.3472 49.5341L72.8563 56.0432ZM86.2181 85.1613C84.3233 85.1613 82.5406 84.4218 81.1993 83.0819L62.0167 63.9008C60.6768 62.5609 59.9388 60.7782 59.9388 58.8833C59.9388 56.9871 60.6768 55.2044 62.0167 53.8645L62.7974 53.0839L69.3065 59.593L69.2554 59.6441C67.5962 61.3048 67.5962 64.0058 69.2554 65.6664L79.4336 75.8446C80.2384 76.648 81.3072 77.0922 82.4455 77.0922C83.5838 77.0922 84.6526 76.6494 85.4048 75.8943L85.5113 75.7992L92.0503 82.3382L91.2355 83.0848C89.8957 84.4218 88.113 85.1613 86.2181 85.1613ZM94.1452 80.4164L87.6205 73.8916L89.4954 72.1969L96.0088 78.7103L94.1452 80.4164ZM95.1203 73.8064L89.5919 68.2781L83.449 73.8348C82.9139 74.3728 81.9785 74.3728 81.442 73.8348L78.3421 70.735L79.3584 67.6833C80.1774 65.225 82.2709 63.4097 84.8215 62.9441L94.7428 61.1415L100.899 67.2973L107.053 61.143L116.973 62.9455C119.523 63.4111 121.617 65.225 122.436 67.6848L124.478 73.8064H95.1203Z" fill="black"/>
<path d="M140.64 0H120.769C118.422 0 116.511 1.91045 116.511 4.25806V15.6129C116.511 17.9605 118.422 19.871 120.769 19.871H124.561L123.093 28.4311L136.79 19.871H140.64C142.988 19.871 144.899 17.9605 144.899 15.6129V4.25806C144.899 1.91045 142.988 0 140.64 0ZM142.06 15.6129C142.06 16.395 141.423 17.0323 140.64 17.0323H135.975L126.961 22.6657L127.927 17.0323H120.769C119.987 17.0323 119.35 16.395 119.35 15.6129V4.25806C119.35 3.476 119.987 2.83871 120.769 2.83871H140.64C141.423 2.83871 142.06 3.476 142.06 4.25806V15.6129Z" fill="black"/>
<path d="M139.221 5.67743H122.189V8.51614H139.221V5.67743Z" fill="black"/>
<path d="M133.544 11.3548H122.189V14.1935H133.544V11.3548Z" fill="black"/>
<path d="M139.221 11.3548H136.382V14.1935H139.221V11.3548Z" fill="black"/>
<path d="M70.4037 35.2809L68.9431 32.8467L65.0967 35.1546C69.1191 18.7852 83.8393 7.09677 100.898 7.09677C104.627 7.09677 108.306 7.65031 111.833 8.74322L112.673 6.03225C108.874 4.85419 104.912 4.25806 100.898 4.25806C82.3532 4.25806 66.3784 17.0862 62.2253 34.98L59.5357 30.4963L57.1015 31.9568L62.0905 40.2699L70.4037 35.2809Z" fill="black"/>
<path d="M130.908 34.7529L133.342 36.2134L135.826 32.0732C137.133 35.8983 137.802 39.8995 137.802 44C137.802 52.4409 134.878 60.693 129.571 67.2348L131.775 69.0232C137.492 61.9776 140.64 53.0895 140.64 44C140.64 39.6582 139.941 35.4186 138.577 31.3592L142.748 33.8615L144.209 31.4274L135.896 26.4383L130.908 34.7529Z" fill="black"/>
</g>
<path d="M11.9564 136.564C12.2364 136.564 12.4564 136.648 12.6164 136.816C12.7764 136.976 12.8564 137.184 12.8564 137.44V139H1.16844V138.124C1.16844 137.948 1.20444 137.764 1.27644 137.572C1.34844 137.38 1.46444 137.204 1.62444 137.044L7.00044 131.656C7.45644 131.2 7.86044 130.764 8.21244 130.348C8.57244 129.932 8.87644 129.516 9.12444 129.1C9.38044 128.684 9.57244 128.264 9.70044 127.84C9.83644 127.408 9.90444 126.956 9.90444 126.484C9.90444 126.028 9.83244 125.628 9.68844 125.284C9.55244 124.932 9.36044 124.644 9.11244 124.42C8.87244 124.188 8.58044 124.016 8.23644 123.904C7.90044 123.784 7.52844 123.724 7.12044 123.724C6.72844 123.724 6.36444 123.78 6.02844 123.892C5.70044 124.004 5.40444 124.16 5.14044 124.36C4.88444 124.56 4.66844 124.8 4.49244 125.08C4.32444 125.352 4.20044 125.652 4.12044 125.98C4.00044 126.308 3.84444 126.528 3.65244 126.64C3.46844 126.752 3.19644 126.776 2.83644 126.712L1.48044 126.472C1.60044 125.656 1.82444 124.94 2.15244 124.324C2.48844 123.708 2.90844 123.196 3.41244 122.788C3.91644 122.372 4.49244 122.06 5.14044 121.852C5.79644 121.636 6.50444 121.528 7.26444 121.528C8.03244 121.528 8.73644 121.644 9.37644 121.876C10.0244 122.1 10.5804 122.424 11.0444 122.848C11.5164 123.264 11.8844 123.772 12.1484 124.372C12.4124 124.972 12.5444 125.648 12.5444 126.4C12.5444 127.04 12.4484 127.632 12.2564 128.176C12.0724 128.72 11.8204 129.24 11.5004 129.736C11.1804 130.232 10.8044 130.716 10.3724 131.188C9.94844 131.652 9.50044 132.124 9.02844 132.604L4.85244 136.876C5.19644 136.78 5.54044 136.704 5.88444 136.648C6.23644 136.592 6.56844 136.564 6.88044 136.564H11.9564ZM22.7223 132.616V126.304C22.7223 125.8 22.7583 125.248 22.8303 124.648L17.0223 132.616H22.7223ZM27.3543 132.616V134.104C27.3543 134.248 27.3063 134.372 27.2103 134.476C27.1223 134.58 26.9863 134.632 26.8023 134.632H24.9663V139H22.7223V134.632H15.2463C15.0623 134.632 14.9023 134.58 14.7663 134.476C14.6383 134.364 14.5543 134.228 14.5143 134.068L14.2503 132.748L22.5423 121.708H24.9663V132.616H27.3543ZM31.2082 139.132C31.0882 139.46 30.8962 139.704 30.6322 139.864C30.3682 140.032 30.1002 140.116 29.8282 140.116H28.7362L35.8402 122.164C35.9522 121.868 36.1242 121.64 36.3562 121.48C36.5962 121.32 36.8682 121.24 37.1722 121.24H38.2642L31.2082 139.132ZM52.0753 121.72V122.86C52.0753 123.196 52.0393 123.468 51.9673 123.676C51.8953 123.884 51.8233 124.06 51.7513 124.204L44.9233 138.1C44.8033 138.356 44.6313 138.572 44.4073 138.748C44.1913 138.916 43.9033 139 43.5433 139H41.6833L48.6433 125.332C48.7713 125.084 48.8993 124.86 49.0273 124.66C49.1553 124.46 49.2993 124.268 49.4593 124.084H40.8313C40.6713 124.084 40.5313 124.024 40.4113 123.904C40.2913 123.776 40.2313 123.632 40.2313 123.472V121.72H52.0753ZM63.8017 123.988V129.52H70.5577V131.788H63.8017V139H60.9817V121.72H71.7577V123.988H63.8017ZM75.5236 129.028C75.9076 128.252 76.3716 127.644 76.9156 127.204C77.4596 126.756 78.1116 126.532 78.8716 126.532C79.1356 126.532 79.3836 126.564 79.6156 126.628C79.8476 126.684 80.0556 126.772 80.2396 126.892L80.0596 128.836C80.0276 128.972 79.9756 129.068 79.9036 129.124C79.8396 129.172 79.7516 129.196 79.6396 129.196C79.5196 129.196 79.3476 129.176 79.1236 129.136C78.8996 129.088 78.6636 129.064 78.4156 129.064C78.0556 129.064 77.7356 129.116 77.4556 129.22C77.1836 129.324 76.9356 129.476 76.7116 129.676C76.4956 129.876 76.3036 130.12 76.1356 130.408C75.9676 130.696 75.8116 131.024 75.6676 131.392V139H73.0876V126.76H74.5876C74.8596 126.76 75.0476 126.812 75.1516 126.916C75.2556 127.012 75.3276 127.184 75.3676 127.432L75.5236 129.028ZM89.5531 131.5C89.5531 131.068 89.4891 130.668 89.3611 130.3C89.2411 129.924 89.0611 129.6 88.8211 129.328C88.5811 129.048 88.2811 128.832 87.9211 128.68C87.5691 128.52 87.1611 128.44 86.6971 128.44C85.7611 128.44 85.0251 128.708 84.4891 129.244C83.9531 129.78 83.6131 130.532 83.4691 131.5H89.5531ZM83.3971 133.084C83.4291 133.78 83.5371 134.384 83.7211 134.896C83.9051 135.4 84.1491 135.82 84.4531 136.156C84.7651 136.492 85.1331 136.744 85.5571 136.912C85.9891 137.072 86.4691 137.152 86.9971 137.152C87.5011 137.152 87.9371 137.096 88.3051 136.984C88.6731 136.864 88.9931 136.736 89.2651 136.6C89.5371 136.456 89.7691 136.328 89.9611 136.216C90.1531 136.096 90.3291 136.036 90.4891 136.036C90.6971 136.036 90.8571 136.116 90.9691 136.276L91.7011 137.224C91.3971 137.584 91.0531 137.888 90.6691 138.136C90.2851 138.384 89.8771 138.588 89.4451 138.748C89.0131 138.9 88.5691 139.008 88.1131 139.072C87.6571 139.144 87.2131 139.18 86.7811 139.18C85.9331 139.18 85.1451 139.04 84.4171 138.76C83.6971 138.472 83.0691 138.052 82.5331 137.5C82.0051 136.948 81.5891 136.264 81.2851 135.448C80.9891 134.632 80.8411 133.692 80.8411 132.628C80.8411 131.78 80.9731 130.988 81.2371 130.252C81.5091 129.516 81.8931 128.876 82.3891 128.332C82.8931 127.788 83.5011 127.36 84.2131 127.048C84.9331 126.728 85.7451 126.568 86.6491 126.568C87.4011 126.568 88.0971 126.692 88.7371 126.94C89.3771 127.18 89.9291 127.536 90.3931 128.008C90.8571 128.48 91.2171 129.06 91.4731 129.748C91.7371 130.428 91.8691 131.204 91.8691 132.076C91.8691 132.476 91.8251 132.744 91.7371 132.88C91.6491 133.016 91.4891 133.084 91.2571 133.084H83.3971ZM102.303 131.5C102.303 131.068 102.239 130.668 102.111 130.3C101.991 129.924 101.811 129.6 101.571 129.328C101.331 129.048 101.031 128.832 100.671 128.68C100.319 128.52 99.9111 128.44 99.4471 128.44C98.5111 128.44 97.7751 128.708 97.2391 129.244C96.7031 129.78 96.3631 130.532 96.2191 131.5H102.303ZM96.1471 133.084C96.1791 133.78 96.2871 134.384 96.4711 134.896C96.6551 135.4 96.8991 135.82 97.2031 136.156C97.5151 136.492 97.8831 136.744 98.3071 136.912C98.7391 137.072 99.2191 137.152 99.7471 137.152C100.251 137.152 100.687 137.096 101.055 136.984C101.423 136.864 101.743 136.736 102.015 136.6C102.287 136.456 102.519 136.328 102.711 136.216C102.903 136.096 103.079 136.036 103.239 136.036C103.447 136.036 103.607 136.116 103.719 136.276L104.451 137.224C104.147 137.584 103.803 137.888 103.419 138.136C103.035 138.384 102.627 138.588 102.195 138.748C101.763 138.9 101.319 139.008 100.863 139.072C100.407 139.144 99.9631 139.18 99.5311 139.18C98.6831 139.18 97.8951 139.04 97.1671 138.76C96.4471 138.472 95.8191 138.052 95.2831 137.5C94.7551 136.948 94.3391 136.264 94.0351 135.448C93.7391 134.632 93.5911 133.692 93.5911 132.628C93.5911 131.78 93.7231 130.988 93.9871 130.252C94.2591 129.516 94.6431 128.876 95.1391 128.332C95.6431 127.788 96.2511 127.36 96.9631 127.048C97.6831 126.728 98.4951 126.568 99.3991 126.568C100.151 126.568 100.847 126.692 101.487 126.94C102.127 127.18 102.679 127.536 103.143 128.008C103.607 128.48 103.967 129.06 104.223 129.748C104.487 130.428 104.619 131.204 104.619 132.076C104.619 132.476 104.575 132.744 104.487 132.88C104.399 133.016 104.239 133.084 104.007 133.084H96.1471ZM122.518 124.672C122.43 124.816 122.338 124.924 122.242 124.996C122.146 125.06 122.026 125.092 121.882 125.092C121.73 125.092 121.558 125.028 121.366 124.9C121.182 124.772 120.95 124.632 120.67 124.48C120.398 124.32 120.074 124.176 119.698 124.048C119.322 123.912 118.874 123.844 118.354 123.844C117.874 123.844 117.45 123.904 117.082 124.024C116.722 124.144 116.418 124.312 116.17 124.528C115.922 124.744 115.734 125 115.606 125.296C115.486 125.584 115.426 125.9 115.426 126.244C115.426 126.684 115.542 127.052 115.774 127.348C116.006 127.636 116.31 127.884 116.686 128.092C117.07 128.3 117.506 128.484 117.994 128.644C118.482 128.796 118.978 128.96 119.482 129.136C119.994 129.312 120.494 129.512 120.982 129.736C121.47 129.96 121.902 130.244 122.278 130.588C122.662 130.932 122.97 131.352 123.202 131.848C123.434 132.344 123.55 132.948 123.55 133.66C123.55 134.428 123.418 135.148 123.154 135.82C122.89 136.492 122.506 137.08 122.002 137.584C121.506 138.08 120.89 138.472 120.154 138.76C119.426 139.048 118.594 139.192 117.658 139.192C117.106 139.192 116.566 139.136 116.038 139.024C115.518 138.92 115.018 138.772 114.538 138.58C114.066 138.38 113.622 138.14 113.206 137.86C112.79 137.58 112.418 137.268 112.09 136.924L112.906 135.58C112.978 135.468 113.07 135.38 113.182 135.316C113.294 135.252 113.418 135.22 113.554 135.22C113.738 135.22 113.942 135.308 114.166 135.484C114.39 135.652 114.658 135.84 114.97 136.048C115.29 136.248 115.674 136.436 116.122 136.612C116.57 136.78 117.106 136.864 117.73 136.864C118.746 136.864 119.53 136.616 120.082 136.12C120.642 135.624 120.922 134.94 120.922 134.068C120.922 133.58 120.806 133.184 120.574 132.88C120.342 132.568 120.034 132.308 119.65 132.1C119.274 131.892 118.842 131.716 118.354 131.572C117.866 131.428 117.37 131.276 116.866 131.116C116.362 130.948 115.866 130.756 115.378 130.54C114.89 130.316 114.454 130.028 114.07 129.676C113.694 129.316 113.39 128.876 113.158 128.356C112.926 127.828 112.81 127.172 112.81 126.388C112.81 125.764 112.93 125.16 113.17 124.576C113.418 123.992 113.774 123.476 114.238 123.028C114.71 122.572 115.29 122.208 115.978 121.936C116.666 121.664 117.45 121.528 118.33 121.528C119.322 121.528 120.23 121.684 121.054 121.996C121.886 122.308 122.602 122.752 123.202 123.328L122.518 124.672ZM136.189 126.76V139H134.629C134.285 139 134.065 138.836 133.969 138.508L133.777 137.368C133.521 137.64 133.249 137.888 132.961 138.112C132.681 138.336 132.381 138.528 132.061 138.688C131.741 138.848 131.397 138.972 131.029 139.06C130.669 139.148 130.281 139.192 129.865 139.192C129.193 139.192 128.601 139.08 128.089 138.856C127.577 138.632 127.145 138.316 126.793 137.908C126.449 137.5 126.189 137.012 126.013 136.444C125.837 135.868 125.749 135.236 125.749 134.548V126.76H128.329V134.548C128.329 135.372 128.517 136.012 128.893 136.468C129.277 136.924 129.857 137.152 130.633 137.152C131.201 137.152 131.729 137.024 132.217 136.768C132.713 136.504 133.177 136.144 133.609 135.688V126.76H136.189ZM141.902 135.928C142.262 136.392 142.654 136.72 143.078 136.912C143.51 137.096 143.986 137.188 144.506 137.188C145.514 137.188 146.298 136.82 146.858 136.084C147.426 135.348 147.71 134.252 147.71 132.796C147.71 132.044 147.646 131.404 147.518 130.876C147.39 130.34 147.206 129.904 146.966 129.568C146.726 129.232 146.434 128.988 146.09 128.836C145.746 128.684 145.358 128.608 144.926 128.608C144.27 128.608 143.702 128.752 143.222 129.04C142.75 129.32 142.31 129.724 141.902 130.252V135.928ZM141.77 128.536C142.282 127.936 142.862 127.452 143.51 127.084C144.166 126.716 144.926 126.532 145.79 126.532C146.478 126.532 147.102 126.672 147.662 126.952C148.222 127.224 148.702 127.624 149.102 128.152C149.502 128.68 149.81 129.336 150.026 130.12C150.25 130.896 150.362 131.788 150.362 132.796C150.362 133.7 150.238 134.544 149.99 135.328C149.75 136.104 149.402 136.78 148.946 137.356C148.49 137.924 147.938 138.372 147.29 138.7C146.642 139.02 145.91 139.18 145.094 139.18C144.374 139.18 143.762 139.064 143.258 138.832C142.762 138.6 142.31 138.28 141.902 137.872V143.068H139.322V126.76H140.882C141.234 126.76 141.458 126.924 141.554 127.252L141.77 128.536ZM155.449 135.928C155.809 136.392 156.201 136.72 156.625 136.912C157.057 137.096 157.533 137.188 158.053 137.188C159.061 137.188 159.845 136.82 160.405 136.084C160.973 135.348 161.257 134.252 161.257 132.796C161.257 132.044 161.193 131.404 161.065 130.876C160.937 130.34 160.753 129.904 160.513 129.568C160.273 129.232 159.981 128.988 159.637 128.836C159.293 128.684 158.905 128.608 158.473 128.608C157.817 128.608 157.249 128.752 156.769 129.04C156.297 129.32 155.857 129.724 155.449 130.252V135.928ZM155.317 128.536C155.829 127.936 156.409 127.452 157.057 127.084C157.713 126.716 158.473 126.532 159.337 126.532C160.025 126.532 160.649 126.672 161.209 126.952C161.769 127.224 162.249 127.624 162.649 128.152C163.049 128.68 163.357 129.336 163.573 130.12C163.797 130.896 163.909 131.788 163.909 132.796C163.909 133.7 163.785 134.544 163.537 135.328C163.297 136.104 162.949 136.78 162.493 137.356C162.037 137.924 161.485 138.372 160.837 138.7C160.189 139.02 159.457 139.18 158.641 139.18C157.921 139.18 157.309 139.064 156.805 138.832C156.309 138.6 155.857 138.28 155.449 137.872V143.068H152.869V126.76H154.429C154.781 126.76 155.005 126.924 155.101 127.252L155.317 128.536ZM171.708 126.568C172.612 126.568 173.428 126.716 174.156 127.012C174.892 127.308 175.516 127.728 176.028 128.272C176.548 128.816 176.948 129.476 177.228 130.252C177.508 131.028 177.648 131.9 177.648 132.868C177.648 133.836 177.508 134.708 177.228 135.484C176.948 136.26 176.548 136.924 176.028 137.476C175.516 138.02 174.892 138.44 174.156 138.736C173.428 139.032 172.612 139.18 171.708 139.18C170.796 139.18 169.972 139.032 169.236 138.736C168.508 138.44 167.884 138.02 167.364 137.476C166.844 136.924 166.444 136.26 166.164 135.484C165.884 134.708 165.744 133.836 165.744 132.868C165.744 131.9 165.884 131.028 166.164 130.252C166.444 129.476 166.844 128.816 167.364 128.272C167.884 127.728 168.508 127.308 169.236 127.012C169.972 126.716 170.796 126.568 171.708 126.568ZM171.708 137.164C172.812 137.164 173.632 136.796 174.168 136.06C174.712 135.316 174.984 134.256 174.984 132.88C174.984 131.504 174.712 130.444 174.168 129.7C173.632 128.948 172.812 128.572 171.708 128.572C170.588 128.572 169.756 128.948 169.212 129.7C168.668 130.444 168.396 131.504 168.396 132.88C168.396 134.256 168.668 135.316 169.212 136.06C169.756 136.796 170.588 137.164 171.708 137.164ZM182.563 129.028C182.947 128.252 183.411 127.644 183.955 127.204C184.499 126.756 185.151 126.532 185.911 126.532C186.175 126.532 186.423 126.564 186.655 126.628C186.887 126.684 187.095 126.772 187.279 126.892L187.099 128.836C187.067 128.972 187.015 129.068 186.943 129.124C186.879 129.172 186.791 129.196 186.679 129.196C186.559 129.196 186.387 129.176 186.163 129.136C185.939 129.088 185.703 129.064 185.455 129.064C185.095 129.064 184.775 129.116 184.495 129.22C184.223 129.324 183.975 129.476 183.751 129.676C183.535 129.876 183.343 130.12 183.175 130.408C183.007 130.696 182.851 131.024 182.707 131.392V139H180.127V126.76H181.627C181.899 126.76 182.087 126.812 182.191 126.916C182.295 127.012 182.367 127.184 182.407 127.432L182.563 129.028ZM192.91 139.192C191.894 139.192 191.11 138.908 190.558 138.34C190.014 137.764 189.742 136.956 189.742 135.916V128.788H188.398C188.254 128.788 188.13 128.744 188.026 128.656C187.922 128.56 187.87 128.42 187.87 128.236V127.192L189.85 126.904L190.414 123.364C190.454 123.228 190.522 123.12 190.618 123.04C190.714 122.952 190.842 122.908 191.002 122.908H192.322V126.928H195.718V128.788H192.322V135.736C192.322 136.176 192.43 136.512 192.646 136.744C192.862 136.976 193.15 137.092 193.51 137.092C193.71 137.092 193.882 137.068 194.026 137.02C194.17 136.964 194.294 136.908 194.398 136.852C194.502 136.788 194.59 136.732 194.662 136.684C194.742 136.628 194.818 136.6 194.89 136.6C195.034 136.6 195.15 136.68 195.238 136.84L196.006 138.1C195.606 138.452 195.134 138.724 194.59 138.916C194.046 139.1 193.486 139.192 192.91 139.192ZM197.356 137.512C197.356 137.28 197.396 137.064 197.476 136.864C197.564 136.656 197.68 136.476 197.824 136.324C197.976 136.172 198.152 136.052 198.352 135.964C198.56 135.876 198.78 135.832 199.012 135.832C199.244 135.832 199.46 135.876 199.66 135.964C199.868 136.052 200.048 136.172 200.2 136.324C200.352 136.476 200.472 136.656 200.56 136.864C200.648 137.064 200.692 137.28 200.692 137.512C200.692 137.752 200.648 137.972 200.56 138.172C200.472 138.372 200.352 138.548 200.2 138.7C200.048 138.852 199.868 138.968 199.66 139.048C199.46 139.136 199.244 139.18 199.012 139.18C198.78 139.18 198.56 139.136 198.352 139.048C198.152 138.968 197.976 138.852 197.824 138.7C197.68 138.548 197.564 138.372 197.476 138.172C197.396 137.972 197.356 137.752 197.356 137.512Z" fill="#272727" fill-opacity="0.8"/>
<defs>
<clipPath id="clip0_43_651">
<rect width="88" height="88" fill="white" transform="translate(57)"/>
</clipPath>
</defs>
</svg>
